<svg width="20" height="18" viewBox="0 0 20 18" fill="none" xmlns="http://www.w3.org/2000/svg">
<path d="M0 16.2H19.6364V18H0V16.2ZM1.96364 9H3.92727V15.3H1.96364V9ZM6.87273 9H8.83636V15.3H6.87273V9ZM10.8 9H12.7636V15.3H10.8V9ZM15.7091 9H17.6727V15.3H15.7091V9ZM0 4.5L9.81818 0L19.6364 4.5V8.1H0V4.5ZM9.81818 5.4C10.0786 5.4 10.3283 5.30518 10.5124 5.1364C10.6966 4.96761 10.8 4.73869 10.8 4.5C10.8 4.26131 10.6966 4.03239 10.5124 3.8636C10.3283 3.69482 10.0786 3.6 9.81818 3.6C9.55779 3.6 9.30806 3.69482 9.12393 3.8636C8.9398 4.03239 8.83636 4.26131 8.83636 4.5C8.83636 4.73869 8.9398 4.96761 9.12393 5.1364C9.30806 5.30518 9.55779 5.4 9.81818 5.4V5.4Z" fill="#333333"/>
</svg>
