<svg width="39" height="39" viewBox="0 0 39 39" fill="none" xmlns="http://www.w3.org/2000/svg">
<path d="M37.5 19.5C37.5 29.4411 29.4411 37.5 19.5 37.5C9.55888 37.5 1.5 29.4411 1.5 19.5C1.5 9.55888 9.55888 1.5 19.5 1.5C29.4411 1.5 37.5 9.55888 37.5 19.5Z" fill="white" stroke="#B31F31" stroke-width="3"/>
<path d="M26.6016 23.1953C27.9297 23.6901 28.6198 24.1198 28.6719 24.4844L28.75 28H24.9219C24.9219 26.151 24.9089 25.1484 24.8828 24.9922C24.8568 24.7839 24.8177 24.6146 24.7656 24.4844C24.7396 24.3542 24.5573 24.1458 24.2188 23.8594C23.8802 23.5729 23.3854 23.2995 22.7344 23.0391C22.6562 23.013 22.526 22.974 22.3438 22.9219C22.1875 22.8438 22.0703 22.7917 21.9922 22.7656C22.0964 22.7135 22.1875 22.6615 22.2656 22.6094C22.3438 22.5573 22.4089 22.5182 22.4609 22.4922C22.513 22.4401 22.5391 22.375 22.5391 22.2969C22.5651 22.2188 22.5781 22.1667 22.5781 22.1406C22.5781 22.0885 22.5781 22.0104 22.5781 21.9062C22.5781 21.776 22.5781 21.6979 22.5781 21.6719C22.5781 21.4375 22.5 21.2031 22.3438 20.9688C22.1875 20.7083 22.0703 20.3307 21.9922 19.8359C21.9661 19.6797 21.9141 19.5365 21.8359 19.4062C21.7839 19.276 21.7188 19.0547 21.6406 18.7422C21.5885 18.612 21.5755 18.4688 21.6016 18.3125C21.6536 18.1562 21.6797 18.0651 21.6797 18.0391C21.6797 17.9609 21.6667 17.8307 21.6406 17.6484C21.6146 17.4661 21.6016 17.3099 21.6016 17.1797C21.5755 16.763 21.7448 16.3203 22.1094 15.8516C22.474 15.3828 23.0469 15.1484 23.8281 15.1484C24.6094 15.1484 25.1823 15.3958 25.5469 15.8906C25.9375 16.3594 26.1198 16.7891 26.0938 17.1797C26.0938 17.3099 26.0807 17.4661 26.0547 17.6484C26.0286 17.8307 26.0156 17.9609 26.0156 18.0391C26.0156 18.0911 26.0286 18.1823 26.0547 18.3125C26.1068 18.4167 26.1068 18.5599 26.0547 18.7422C25.9766 19.0547 25.8984 19.276 25.8203 19.4062C25.7682 19.5365 25.7292 19.6797 25.7031 19.8359C25.625 20.3307 25.4948 20.7083 25.3125 20.9688C25.1562 21.2292 25.0781 21.4635 25.0781 21.6719C25.0781 22.2188 25.1432 22.5443 25.2734 22.6484C25.3255 22.6745 25.7682 22.8568 26.6016 23.1953ZM23.9453 28H17.5781H11.25C11.25 26.3073 11.276 25.3047 11.3281 24.9922C11.4323 24.5234 12.3307 23.9635 14.0234 23.3125C15.0651 22.9219 15.651 22.6615 15.7812 22.5312C15.9115 22.375 15.9766 21.9193 15.9766 21.1641C15.9766 20.9036 15.8724 20.6562 15.6641 20.4219C15.4557 20.1615 15.2995 19.7057 15.1953 19.0547C15.1693 18.8464 15.1042 18.6641 15 18.5078C14.9219 18.3516 14.8438 18.0651 14.7656 17.6484C14.7135 17.4401 14.7005 17.2578 14.7266 17.1016C14.7786 16.9193 14.8047 16.8021 14.8047 16.75C14.7526 16.3854 14.7135 16.0078 14.6875 15.6172C14.6354 15.0964 14.8438 14.5365 15.3125 13.9375C15.8073 13.3125 16.5625 13 17.5781 13C18.5938 13 19.349 13.3125 19.8438 13.9375C20.3385 14.5625 20.5599 15.1224 20.5078 15.6172C20.4818 16.0078 20.4427 16.3854 20.3906 16.75C20.3906 16.8021 20.4167 16.9062 20.4688 17.0625C20.5208 17.2188 20.5208 17.4141 20.4688 17.6484C20.3906 18.0651 20.2995 18.3516 20.1953 18.5078C20.0911 18.6641 20.026 18.8464 20 19.0547C19.8958 19.7057 19.7396 20.1615 19.5312 20.4219C19.3229 20.6562 19.2188 20.9036 19.2188 21.1641C19.2188 21.5807 19.2188 21.8411 19.2188 21.9453C19.2188 22.0495 19.2578 22.1927 19.3359 22.375C19.4141 22.5573 19.5312 22.6875 19.6875 22.7656C19.8438 22.8177 20.0911 22.9089 20.4297 23.0391C20.5078 23.0651 20.7552 23.1562 21.1719 23.3125C22.8646 23.9635 23.763 24.5234 23.8672 24.9922C23.9193 25.3047 23.9453 25.9167 23.9453 26.8281V28Z" fill="#B31F31"/>
</svg>
