<svg width="176" height="93" viewBox="0 0 176 93" fill="none" xmlns="http://www.w3.org/2000/svg">
<path d="M84.9999 36.3333C79.7258 36.3333 74.57 37.8972 70.1847 40.8274C65.7994 43.7576 62.3815 47.9223 60.3631 52.795C58.3448 57.6677 57.8167 63.0295 58.8457 68.2023C59.8746 73.3752 62.4144 78.1267 66.1438 81.8561C69.8732 85.5855 74.6247 88.1253 79.7975 89.1542C84.9704 90.1831 90.3321 89.655 95.2048 87.6367C100.078 85.6184 104.242 82.2004 107.172 77.8151C110.103 73.4298 111.667 68.2741 111.667 62.9999C111.667 55.9275 108.857 49.1447 103.856 44.1437C98.8551 39.1428 92.0724 36.3333 84.9999 36.3333ZM102.417 54.0499L80.5166 75.9333L67.5833 62.9999C67.1412 62.5579 66.8929 61.9584 66.8929 61.3333C66.8929 60.7081 67.1412 60.1086 67.5833 59.6666C68.0253 59.2246 68.6248 58.9762 69.2499 58.9762C69.8751 58.9762 70.4746 59.2246 70.9166 59.6666L80.5499 69.2999L99.1166 50.7499C99.3355 50.531 99.5953 50.3574 99.8813 50.239C100.167 50.1205 100.474 50.0596 100.783 50.0596C101.093 50.0596 101.399 50.1205 101.685 50.239C101.971 50.3574 102.231 50.531 102.45 50.7499C102.669 50.9688 102.842 51.2286 102.961 51.5146C103.079 51.8006 103.14 52.1071 103.14 52.4166C103.14 52.7261 103.079 53.0326 102.961 53.3186C102.842 53.6045 102.669 53.8644 102.45 54.0833L102.417 54.0499Z" fill="#3DB76C"/>
<path d="M119.417 18.0478C118.872 17.9606 118.314 17.993 117.783 18.1426C117.252 18.2923 116.759 18.5557 116.339 18.9146C115.919 19.2736 115.582 19.7195 115.351 20.2217C115.12 20.724 115 21.2705 115 21.8236C115 22.3767 115.12 22.9232 115.351 23.4254C115.582 23.9276 115.919 24.3736 116.339 24.7325C116.759 25.0915 117.252 25.3548 117.783 25.5045C118.314 25.6542 118.872 25.6865 119.417 25.5993C120.313 25.456 121.129 24.9971 121.718 24.305C122.307 23.613 122.631 22.7332 122.631 21.8236C122.631 20.9139 122.307 20.0341 121.718 19.3421C121.129 18.6501 120.313 18.1912 119.417 18.0478Z" fill="#1077BE"/>
<path d="M99.4169 0.0477947C98.8719 -0.0393829 98.3145 -0.00702928 97.7831 0.142623C97.2518 0.292275 96.7592 0.555663 96.3393 0.914614C95.9194 1.27356 95.5822 1.71953 95.351 2.22175C95.1197 2.72397 95 3.27047 95 3.82356C95 4.37665 95.1197 4.92316 95.351 5.42537C95.5822 5.92759 95.9194 6.37356 96.3393 6.73251C96.7592 7.09146 97.2518 7.35485 97.7831 7.5045C98.3145 7.65415 98.8719 7.68651 99.4169 7.59933C100.313 7.45596 101.129 6.99705 101.718 6.30502C102.307 5.61299 102.631 4.73318 102.631 3.82356C102.631 2.91395 102.307 2.03413 101.718 1.3421C101.129 0.650072 100.313 0.191167 99.4169 0.0477947Z" fill="#3DB76C"/>
<path d="M10.4169 14.0478C9.8719 13.9606 9.31448 13.993 8.78314 14.1426C8.2518 14.2923 7.75918 14.5557 7.33928 14.9146C6.91937 15.2736 6.58218 15.7195 6.35096 16.2217C6.11974 16.724 6 17.2705 6 17.8236C6 18.3767 6.11974 18.9232 6.35096 19.4254C6.58218 19.9276 6.91937 20.3736 7.33928 20.7325C7.75918 21.0915 8.2518 21.3548 8.78314 21.5045C9.31448 21.6542 9.8719 21.6865 10.4169 21.5993C11.3133 21.456 12.1293 20.9971 12.7184 20.305C13.3075 19.613 13.6311 18.7332 13.6311 17.8236C13.6311 16.9139 13.3075 16.0341 12.7184 15.3421C12.1293 14.6501 11.3133 14.1912 10.4169 14.0478Z" fill="#1077BE"/>
<path d="M156.291 53C155.431 53 154.606 53.3424 153.998 53.9519C153.389 54.5614 153.048 55.3881 153.048 56.25C152.967 56.7169 152.989 57.1958 153.112 57.6532C153.236 58.1106 153.457 58.5354 153.762 58.8979C154.066 59.2605 154.446 59.5519 154.875 59.7518C155.303 59.9518 155.77 60.0554 156.243 60.0554C156.716 60.0554 157.183 59.9518 157.612 59.7518C158.04 59.5519 158.42 59.2605 158.725 58.8979C159.029 58.5354 159.251 58.1106 159.374 57.6532C159.497 57.1958 159.519 56.7169 159.439 56.25C159.439 55.4044 159.11 54.5919 158.523 53.9851C157.935 53.3782 157.134 53.0249 156.291 53Z" fill="#3DB76C"/>
<path d="M35.2909 29C34.4307 29 33.6058 29.3424 32.9976 29.9519C32.3894 30.5614 32.0477 31.3881 32.0477 32.25C31.9669 32.7169 31.989 33.1958 32.1123 33.6532C32.2356 34.1106 32.4573 34.5354 32.7617 34.8979C33.0661 35.2605 33.446 35.5519 33.8746 35.7518C34.3033 35.9518 34.7704 36.0554 35.2432 36.0554C35.716 36.0554 36.1831 35.9518 36.6117 35.7518C37.0404 35.5519 37.4203 35.2605 37.7247 34.8979C38.0291 34.5354 38.2508 34.1106 38.3741 33.6532C38.4974 33.1958 38.5195 32.7169 38.4387 32.25C38.4391 31.4044 38.1105 30.5919 37.5227 29.9851C36.935 29.3782 36.1344 29.0249 35.2909 29Z" fill="#3DB76C"/>
<path d="M154.725 33.1598L155.965 31.9171C156.142 31.6838 156.239 31.3983 156.239 31.1046C156.239 30.8109 156.142 30.5254 155.965 30.2921C155.732 30.1138 155.447 30.0172 155.154 30.0172C154.861 30.0172 154.576 30.1138 154.343 30.2921L153.103 31.6303L151.863 30.2921C151.653 30.104 151.381 30 151.1 30C150.818 30 150.547 30.104 150.337 30.2921C150.23 30.3987 150.145 30.5253 150.088 30.6647C150.03 30.8041 150 30.9536 150 31.1046C150 31.2556 150.03 31.4051 150.088 31.5445C150.145 31.6839 150.23 31.8105 150.337 31.9171L151.577 33.1598L150.337 34.4024C150.23 34.509 150.145 34.6356 150.088 34.775C150.03 34.9145 150 35.064 150 35.2149C150 35.3659 150.03 35.5154 150.088 35.6548C150.145 35.7942 150.23 35.9209 150.337 36.0274C150.547 36.2155 150.818 36.3195 151.1 36.3195C151.381 36.3195 151.653 36.2155 151.863 36.0274L153.103 34.7848L154.343 36.0274C154.576 36.2057 154.861 36.3023 155.154 36.3023C155.447 36.3023 155.732 36.2057 155.965 36.0274C156.142 35.7941 156.239 35.5086 156.239 35.2149C156.239 34.9213 156.142 34.6358 155.965 34.4024L154.725 33.1598Z" fill="#3DB76C"/>
<path d="M4.72451 36.1598L5.96455 34.9171C6.14247 34.6838 6.23886 34.3983 6.23886 34.1046C6.23886 33.8109 6.14247 33.5254 5.96455 33.2921C5.7317 33.1138 5.4468 33.0172 5.15376 33.0172C4.86071 33.0172 4.57581 33.1138 4.34296 33.2921L3.10292 34.6303L1.86288 33.2921C1.65302 33.104 1.38133 33 1.09977 33C0.818212 33 0.546527 33.104 0.336665 33.2921C0.229953 33.3987 0.145285 33.5253 0.0875122 33.6647C0.0297391 33.8041 0 33.9536 0 34.1046C0 34.2556 0.0297391 34.4051 0.0875122 34.5445C0.145285 34.6839 0.229953 34.8105 0.336665 34.9171L1.57671 36.1598L0.336665 37.4024C0.229953 37.509 0.145285 37.6356 0.0875122 37.775C0.0297391 37.9145 0 38.064 0 38.2149C0 38.3659 0.0297391 38.5154 0.0875122 38.6548C0.145285 38.7942 0.229953 38.9209 0.336665 39.0274C0.546527 39.2155 0.818212 39.3195 1.09977 39.3195C1.38133 39.3195 1.65302 39.2155 1.86288 39.0274L3.10292 37.7848L4.34296 39.0274C4.57581 39.2057 4.86071 39.3023 5.15376 39.3023C5.4468 39.3023 5.7317 39.2057 5.96455 39.0274C6.14247 38.7941 6.23886 38.5086 6.23886 38.2149C6.23886 37.9213 6.14247 37.6358 5.96455 37.4024L4.72451 36.1598Z" fill="#3DB76C"/>
<path d="M69.7747 17.2051L71.0148 15.8668C71.2025 15.6565 71.3062 15.3842 71.3062 15.1021C71.3062 14.8199 71.2025 14.5477 71.0148 14.3374C70.9084 14.2304 70.7821 14.1456 70.6429 14.0877C70.5038 14.0298 70.3546 14 70.204 14C70.0533 14 69.9041 14.0298 69.765 14.0877C69.6259 14.1456 69.4995 14.2304 69.3932 14.3374L68.1531 15.58L66.9131 14.3374C66.8067 14.2304 66.6804 14.1456 66.5412 14.0877C66.4021 14.0298 66.2529 14 66.1023 14C65.9516 14 65.8025 14.0298 65.6633 14.0877C65.5242 14.1456 65.3978 14.2304 65.2915 14.3374C65.1038 14.5477 65 14.8199 65 15.1021C65 15.3842 65.1038 15.6565 65.2915 15.8668L66.6269 17.2051L65.2915 18.4477C65.1038 18.658 65 18.9303 65 19.2124C65 19.4946 65.1038 19.7668 65.2915 19.9771C65.3978 20.0841 65.5242 20.1689 65.6633 20.2268C65.8025 20.2847 65.9516 20.3145 66.1023 20.3145C66.2529 20.3145 66.4021 20.2847 66.5412 20.2268C66.6804 20.1689 66.8067 20.0841 66.9131 19.9771L68.1531 18.7345L69.3932 19.9771C69.4995 20.0841 69.6259 20.1689 69.765 20.2268C69.9041 20.2847 70.0533 20.3145 70.204 20.3145C70.3546 20.3145 70.5038 20.2847 70.6429 20.2268C70.7821 20.1689 70.9084 20.0841 71.0148 19.9771C71.2025 19.7668 71.3062 19.4946 71.3062 19.2124C71.3062 18.9303 71.2025 18.658 71.0148 18.4477L69.7747 17.2051Z" fill="#1077BE"/>
<path d="M174.102 10.7721L175.151 9.7206C175.26 9.63843 175.351 9.53368 175.416 9.41344C175.482 9.29319 175.52 9.16026 175.53 9.02365C175.54 8.88705 175.52 8.74995 175.472 8.62164C175.425 8.49334 175.35 8.37681 175.253 8.27997C175.156 8.18313 175.04 8.10824 174.912 8.06035C174.784 8.01246 174.647 7.9927 174.511 8.0024C174.375 8.01211 174.242 8.05107 174.122 8.11662C174.002 8.18217 173.898 8.27279 173.816 8.38236L172.766 9.43383L171.717 8.38236C171.533 8.2443 171.306 8.17728 171.077 8.19359C170.848 8.2099 170.633 8.30845 170.47 8.47115C170.308 8.63386 170.209 8.84979 170.193 9.07931C170.177 9.30882 170.244 9.53653 170.382 9.7206L171.431 10.7721L170.382 11.8236C170.272 11.9057 170.182 12.0105 170.116 12.1307C170.051 12.251 170.012 12.3839 170.002 12.5205C169.993 12.6571 170.012 12.7942 170.06 12.9225C170.108 13.0508 170.183 13.1674 170.279 13.2642C170.376 13.361 170.492 13.4359 170.62 13.4838C170.748 13.5317 170.885 13.5515 171.022 13.5418C171.158 13.5321 171.29 13.4931 171.41 13.4276C171.53 13.362 171.635 13.2714 171.717 13.1618L172.766 12.1103L173.816 13.1618C173.898 13.2714 174.002 13.362 174.122 13.4276C174.242 13.4931 174.375 13.5321 174.511 13.5418C174.647 13.5515 174.784 13.5317 174.912 13.4838C175.04 13.4359 175.156 13.361 175.253 13.2642C175.35 13.1674 175.425 13.0508 175.472 12.9225C175.52 12.7942 175.54 12.6571 175.53 12.5205C175.52 12.3839 175.482 12.251 175.416 12.1307C175.351 12.0105 175.26 11.9057 175.151 11.8236L174.102 10.7721Z" fill="#1077BE"/>
<path d="M24.1017 74.7721L25.151 73.7206C25.2603 73.6384 25.3507 73.5337 25.4161 73.4134C25.4816 73.2932 25.5204 73.1603 25.5301 73.0237C25.5398 72.887 25.5201 72.7499 25.4723 72.6216C25.4245 72.4933 25.3498 72.3768 25.2531 72.28C25.1565 72.1831 25.0402 72.1082 24.9122 72.0603C24.7842 72.0125 24.6473 71.9927 24.511 72.0024C24.3747 72.0121 24.242 72.0511 24.1221 72.1166C24.0021 72.1822 23.8975 72.2728 23.8155 72.3824L22.7663 73.4338L21.717 72.3824C21.5333 72.2443 21.3061 72.1773 21.077 72.1936C20.848 72.2099 20.6325 72.3085 20.4702 72.4712C20.3078 72.6339 20.2094 72.8498 20.1932 73.0793C20.1769 73.3088 20.2438 73.5365 20.3816 73.7206L21.4308 74.7721L20.3816 75.8236C20.2722 75.9057 20.1818 76.0105 20.1164 76.1307C20.051 76.251 20.0121 76.3839 20.0024 76.5205C19.9927 76.6571 20.0124 76.7942 20.0602 76.9225C20.108 77.0508 20.1827 77.1674 20.2794 77.2642C20.376 77.361 20.4923 77.4359 20.6203 77.4838C20.7484 77.5317 20.8852 77.5515 21.0215 77.5418C21.1578 77.5321 21.2905 77.4931 21.4105 77.4276C21.5305 77.362 21.635 77.2714 21.717 77.1618L22.7663 76.1103L23.8155 77.1618C23.8975 77.2714 24.0021 77.362 24.1221 77.4276C24.242 77.4931 24.3747 77.5321 24.511 77.5418C24.6473 77.5515 24.7842 77.5317 24.9122 77.4838C25.0402 77.4359 25.1565 77.361 25.2531 77.2642C25.3498 77.1674 25.4245 77.0508 25.4723 76.9225C25.5201 76.7942 25.5398 76.6571 25.5301 76.5205C25.5204 76.3839 25.4816 76.251 25.4161 76.1307C25.3507 76.0105 25.2603 75.9057 25.151 75.8236L24.1017 74.7721Z" fill="#1077BE"/>
</svg>
