<svg width="25" height="25" viewBox="0 0 25 25" fill="none" xmlns="http://www.w3.org/2000/svg">
<path d="M23.0469 3.51562H1.95312C1.64244 3.51599 1.34457 3.63957 1.12488 3.85926C0.905193 4.07895 0.781612 4.37681 0.78125 4.6875V20.3125C0.781612 20.6232 0.905193 20.921 1.12488 21.1407C1.34457 21.3604 1.64244 21.484 1.95312 21.4844H23.0469C23.3576 21.484 23.6554 21.3604 23.8751 21.1407C24.0948 20.921 24.2184 20.6232 24.2188 20.3125V4.6875C24.2184 4.37681 24.0948 4.07895 23.8751 3.85926C23.6554 3.63957 23.3576 3.51599 23.0469 3.51562ZM22.6562 5.07812V8.20312H2.34375V5.07812H22.6562ZM2.34375 19.9219V11.3281H22.6562V19.9219H2.34375Z" fill="#333333"/>
<path d="M4.29688 15.2344H7.42188V16.7969H4.29688V15.2344Z" fill="#333333"/>
<path d="M8.98438 15.2344H12.1094V16.7969H8.98438V15.2344Z" fill="#333333"/>
</svg>
