<svg width="30" height="30" viewBox="0 0 30 30" fill="none" xmlns="http://www.w3.org/2000/svg">
<circle cx="15" cy="15" r="15" fill="black"/>
<path d="M10.6002 9.25433L15.0001 13.6542L19.4 9.26767C19.4866 9.17952 19.5906 9.11031 19.7053 9.06441C19.8201 9.01851 19.9431 8.99692 20.0666 9.00101C20.309 9.01669 20.5374 9.12006 20.7091 9.2918C20.8809 9.46355 20.9843 9.69193 20.9999 9.93431C21.0012 10.0535 20.9781 10.1717 20.9323 10.2817C20.8865 10.3917 20.8188 10.4912 20.7333 10.5743L16.3201 15.0008L20.7333 19.4274C20.9066 19.5954 21.0026 19.8274 20.9999 20.0674C20.9843 20.3098 20.8809 20.5381 20.7091 20.7099C20.5374 20.8816 20.309 20.985 20.0666 21.0007C19.9431 21.0048 19.8201 20.9832 19.7053 20.9373C19.5906 20.8914 19.4866 20.8222 19.4 20.734L15.0001 16.3475L10.6136 20.734C10.5269 20.8222 10.423 20.8914 10.3082 20.9373C10.1935 20.9832 10.0704 21.0048 9.94691 21.0007C9.70001 20.9878 9.46663 20.884 9.29181 20.7091C9.11699 20.5343 9.01312 20.3009 9.00027 20.054C8.99907 19.9349 9.02208 19.8167 9.06792 19.7067C9.11376 19.5967 9.18146 19.4971 9.26693 19.4141L13.6801 15.0008L9.2536 10.5743C9.17054 10.4901 9.10529 10.3901 9.06177 10.2801C9.01824 10.1701 8.99733 10.0525 9.00027 9.93431C9.01596 9.69193 9.11932 9.46355 9.29107 9.2918C9.46282 9.12006 9.6912 9.01669 9.93358 9.00101C10.0561 8.99518 10.1786 9.01467 10.2933 9.05826C10.408 9.10184 10.5125 9.16859 10.6002 9.25433Z" fill="white"/>
</svg>
