<svg width="176" height="101" viewBox="0 0 176 101" fill="none" xmlns="http://www.w3.org/2000/svg">
<path d="M119.417 18.5946C118.872 18.5058 118.314 18.5387 117.783 18.6912C117.252 18.8436 116.759 19.1119 116.339 19.4775C115.919 19.8431 115.582 20.2973 115.351 20.8089C115.12 21.3204 115 21.877 115 22.4404C115 23.0038 115.12 23.5604 115.351 24.0719C115.582 24.5835 115.919 25.0377 116.339 25.4033C116.759 25.7689 117.252 26.0372 117.783 26.1896C118.314 26.3421 118.872 26.375 119.417 26.2862C120.313 26.1402 121.129 25.6728 121.718 24.9679C122.307 24.263 122.631 23.3669 122.631 22.4404C122.631 21.5139 122.307 20.6178 121.718 19.9129C121.129 19.208 120.313 18.7406 119.417 18.5946Z" fill="#1077BE"/>
<path d="M99.4169 0.260596C98.8719 0.1718 98.3145 0.204754 97.7831 0.357183C97.2518 0.509612 96.7592 0.777887 96.3393 1.1435C95.9194 1.50911 95.5822 1.96335 95.351 2.47489C95.1197 2.98642 95 3.54307 95 4.10642C95 4.66978 95.1197 5.22642 95.351 5.73796C95.5822 6.24949 95.9194 6.70373 96.3393 7.06934C96.7592 7.43496 97.2518 7.70323 97.7831 7.85566C98.3145 8.00809 98.8719 8.04104 99.4169 7.95225C100.313 7.80622 101.129 7.3388 101.718 6.63393C102.307 5.92906 102.631 5.03291 102.631 4.10642C102.631 3.17993 102.307 2.28379 101.718 1.57892C101.129 0.874048 100.313 0.406628 99.4169 0.260596Z" fill="#3DB76C"/>
<path d="M10.4169 14.5204C9.87189 14.4316 9.31448 14.4645 8.78314 14.6169C8.2518 14.7694 7.75918 15.0377 7.33928 15.4033C6.91937 15.7689 6.58218 16.2231 6.35096 16.7347C6.11974 17.2462 6 17.8028 6 18.3662C6 18.9295 6.11974 19.4862 6.35096 19.9977C6.58218 20.5093 6.91937 20.9635 7.33928 21.3291C7.75918 21.6947 8.2518 21.963 8.78314 22.1154C9.31448 22.2679 9.87189 22.3008 10.4169 22.212C11.3133 22.066 12.1293 21.5986 12.7184 20.8937C13.3074 20.1888 13.631 19.2927 13.631 18.3662C13.631 17.4397 13.3074 16.5436 12.7184 15.8387C12.1293 15.1338 11.3133 14.6664 10.4169 14.5204Z" fill="#1077BE"/>
<path d="M156.291 54.1953C155.431 54.1953 154.606 54.5441 153.998 55.1649C153.389 55.7857 153.048 56.6277 153.048 57.5057C152.967 57.9812 152.989 58.4689 153.112 58.9348C153.236 59.4007 153.457 59.8334 153.762 60.2027C154.066 60.572 154.446 60.8688 154.875 61.0725C155.303 61.2761 155.77 61.3816 156.243 61.3816C156.716 61.3816 157.183 61.2761 157.612 61.0725C158.04 60.8688 158.42 60.572 158.725 60.2027C159.029 59.8334 159.251 59.4007 159.374 58.9348C159.497 58.4689 159.52 57.9812 159.439 57.5057C159.439 56.6443 159.111 55.8167 158.523 55.1987C157.935 54.5806 157.134 54.2206 156.291 54.1953Z" fill="#3DB76C"/>
<path d="M35.2909 29.75C34.4307 29.75 33.6058 30.0988 32.9976 30.7196C32.3894 31.3404 32.0477 32.1824 32.0477 33.0603C31.9669 33.5358 31.989 34.0236 32.1123 34.4895C32.2356 34.9554 32.4573 35.3881 32.7617 35.7574C33.0661 36.1266 33.446 36.4235 33.8746 36.6271C34.3033 36.8308 34.7704 36.9363 35.2432 36.9363C35.716 36.9363 36.1831 36.8308 36.6117 36.6271C37.0404 36.4235 37.4203 36.1266 37.7247 35.7574C38.0291 35.3881 38.2508 34.9554 38.3741 34.4895C38.4974 34.0236 38.5195 33.5358 38.4387 33.0603C38.4391 32.199 38.1105 31.3714 37.5227 30.7533C36.935 30.1353 36.1344 29.7753 35.2909 29.75Z" fill="#3DB76C"/>
<path d="M154.725 33.987L155.965 32.7212C156.142 32.4836 156.239 32.1928 156.239 31.8937C156.239 31.5945 156.142 31.3037 155.965 31.0661C155.732 30.8845 155.447 30.7861 155.154 30.7861C154.861 30.7861 154.576 30.8845 154.343 31.0661L153.103 32.4291L151.863 31.0661C151.653 30.8745 151.381 30.7686 151.1 30.7686C150.818 30.7686 150.547 30.8745 150.337 31.0661C150.23 31.1746 150.145 31.3036 150.088 31.4456C150.03 31.5876 150 31.7399 150 31.8937C150 32.0474 150.03 32.1997 150.088 32.3417C150.145 32.4837 150.23 32.6127 150.337 32.7212L151.577 33.987L150.337 35.2527C150.23 35.3612 150.145 35.4902 150.088 35.6322C150.03 35.7742 150 35.9265 150 36.0803C150 36.234 150.03 36.3863 150.088 36.5283C150.145 36.6703 150.23 36.7993 150.337 36.9078C150.547 37.0994 150.818 37.2054 151.1 37.2054C151.381 37.2054 151.653 37.0994 151.863 36.9078L153.103 35.6421L154.343 36.9078C154.576 37.0894 154.861 37.1878 155.154 37.1878C155.447 37.1878 155.732 37.0894 155.965 36.9078C156.142 36.6702 156.239 36.3794 156.239 36.0803C156.239 35.7811 156.142 35.4903 155.965 35.2527L154.725 33.987Z" fill="#3DB76C"/>
<path d="M4.72453 37.0426L5.96458 35.7769C6.1425 35.5392 6.23889 35.2484 6.23889 34.9493C6.23889 34.6502 6.1425 34.3594 5.96458 34.1217C5.73173 33.9401 5.44682 33.8417 5.15378 33.8417C4.86074 33.8417 4.57583 33.9401 4.34298 34.1217L3.10293 35.4848L1.86289 34.1217C1.65302 33.9301 1.38134 33.8242 1.09978 33.8242C0.818216 33.8242 0.54653 33.9301 0.336667 34.1217C0.229954 34.2303 0.145286 34.3593 0.0875126 34.5013C0.0297392 34.6433 0 34.7955 0 34.9493C0 35.1031 0.0297392 35.2553 0.0875126 35.3974C0.145286 35.5394 0.229954 35.6683 0.336667 35.7769L1.57672 37.0426L0.336667 38.3083C0.229954 38.4169 0.145286 38.5458 0.0875126 38.6878C0.0297392 38.8299 0 38.9821 0 39.1359C0 39.2897 0.0297392 39.4419 0.0875126 39.5839C0.145286 39.726 0.229954 39.8549 0.336667 39.9635C0.54653 40.1551 0.818216 40.261 1.09978 40.261C1.38134 40.261 1.65302 40.1551 1.86289 39.9635L3.10293 38.6978L4.34298 39.9635C4.57583 40.1451 4.86074 40.2435 5.15378 40.2435C5.44682 40.2435 5.73173 40.1451 5.96458 39.9635C6.1425 39.7258 6.23889 39.435 6.23889 39.1359C6.23889 38.8368 6.1425 38.546 5.96458 38.3083L4.72453 37.0426Z" fill="#3DB76C"/>
<path d="M69.7747 17.7362L71.0148 16.3731C71.2025 16.1589 71.3063 15.8816 71.3063 15.5942C71.3063 15.3068 71.2025 15.0295 71.0148 14.8153C70.9085 14.7064 70.7821 14.62 70.643 14.561C70.5038 14.502 70.3546 14.4717 70.204 14.4717C70.0533 14.4717 69.9042 14.502 69.765 14.561C69.6259 14.62 69.4995 14.7064 69.3932 14.8153L68.1531 16.081L66.9131 14.8153C66.8067 14.7064 66.6804 14.62 66.5412 14.561C66.4021 14.502 66.2529 14.4717 66.1023 14.4717C65.9516 14.4717 65.8025 14.502 65.6633 14.561C65.5242 14.62 65.3978 14.7064 65.2915 14.8153C65.1038 15.0295 65 15.3068 65 15.5942C65 15.8816 65.1038 16.1589 65.2915 16.3731L66.6269 17.7362L65.2915 19.0019C65.1038 19.2161 65 19.4934 65 19.7808C65 20.0682 65.1038 20.3455 65.2915 20.5597C65.3978 20.6686 65.5242 20.7551 65.6633 20.814C65.8025 20.873 65.9516 20.9034 66.1023 20.9034C66.2529 20.9034 66.4021 20.873 66.5412 20.814C66.6804 20.7551 66.8067 20.6686 66.9131 20.5597L68.1531 19.294L69.3932 20.5597C69.4995 20.6686 69.6259 20.7551 69.765 20.814C69.9042 20.873 70.0533 20.9034 70.204 20.9034C70.3546 20.9034 70.5038 20.873 70.643 20.814C70.7821 20.7551 70.9085 20.6686 71.0148 20.5597C71.2025 20.3455 71.3063 20.0682 71.3063 19.7808C71.3063 19.4934 71.2025 19.2161 71.0148 19.0019L69.7747 17.7362Z" fill="#1077BE"/>
<path d="M174.102 11.1839L175.151 10.1129C175.26 10.0292 175.351 9.92249 175.416 9.80001C175.482 9.67754 175.52 9.54214 175.53 9.403C175.54 9.26386 175.52 9.12422 175.472 8.99353C175.424 8.86284 175.35 8.74415 175.253 8.64552C175.156 8.54688 175.04 8.4706 174.912 8.42182C174.784 8.37304 174.647 8.35291 174.511 8.3628C174.375 8.37269 174.242 8.41236 174.122 8.47913C174.002 8.5459 173.897 8.63821 173.815 8.7498L172.766 9.82079L171.717 8.7498C171.533 8.60918 171.306 8.54092 171.077 8.55753C170.848 8.57414 170.633 8.67453 170.47 8.84025C170.308 9.00597 170.209 9.22591 170.193 9.45968C170.177 9.69346 170.244 9.92539 170.382 10.1129L171.431 11.1839L170.382 12.2549C170.272 12.3386 170.182 12.4453 170.116 12.5677C170.051 12.6902 170.012 12.8256 170.002 12.9647C169.993 13.1039 170.012 13.2435 170.06 13.3742C170.108 13.5049 170.183 13.6236 170.279 13.7222C170.376 13.8209 170.492 13.8971 170.62 13.9459C170.748 13.9947 170.885 14.0148 171.021 14.0049C171.158 13.995 171.29 13.9554 171.41 13.8886C171.53 13.8218 171.635 13.7295 171.717 13.6179L172.766 12.5469L173.815 13.6179C173.897 13.7295 174.002 13.8218 174.122 13.8886C174.242 13.9554 174.375 13.995 174.511 14.0049C174.647 14.0148 174.784 13.9947 174.912 13.9459C175.04 13.8971 175.156 13.8209 175.253 13.7222C175.35 13.6236 175.424 13.5049 175.472 13.3742C175.52 13.2435 175.54 13.1039 175.53 12.9647C175.52 12.8256 175.482 12.6902 175.416 12.5677C175.351 12.4453 175.26 12.3386 175.151 12.2549L174.102 11.1839Z" fill="#1077BE"/>
<path d="M24.1017 76.3714L25.151 75.3004C25.2603 75.2167 25.3507 75.11 25.4162 74.9875C25.4816 74.865 25.5204 74.7296 25.5301 74.5905C25.5398 74.4514 25.5201 74.3117 25.4723 74.181C25.4245 74.0503 25.3498 73.9317 25.2531 73.833C25.1565 73.7344 25.0402 73.6581 24.9122 73.6093C24.7842 73.5605 24.6473 73.5404 24.511 73.5503C24.3747 73.5602 24.2421 73.5999 24.1221 73.6666C24.0021 73.7334 23.8975 73.8257 23.8155 73.9373L22.7663 75.0083L21.717 73.9373C21.5333 73.7967 21.3061 73.7284 21.077 73.745C20.848 73.7616 20.6325 73.862 20.4702 74.0277C20.3078 74.1935 20.2095 74.4134 20.1932 74.6472C20.1769 74.881 20.2438 75.1129 20.3816 75.3004L21.4308 76.3714L20.3816 77.4424C20.2722 77.5261 20.1818 77.6328 20.1164 77.7552C20.051 77.8777 20.0121 78.0131 20.0024 78.1522C19.9927 78.2914 20.0124 78.431 20.0602 78.5617C20.108 78.6924 20.1827 78.8111 20.2794 78.9097C20.376 79.0084 20.4923 79.0846 20.6203 79.1334C20.7484 79.1822 20.8852 79.2023 21.0215 79.1924C21.1578 79.1825 21.2905 79.1429 21.4105 79.0761C21.5305 79.0093 21.635 78.917 21.717 78.8054L22.7663 77.7344L23.8155 78.8054C23.8975 78.917 24.0021 79.0093 24.1221 79.0761C24.2421 79.1429 24.3747 79.1825 24.511 79.1924C24.6473 79.2023 24.7842 79.1822 24.9122 79.1334C25.0402 79.0846 25.1565 79.0084 25.2531 78.9097C25.3498 78.8111 25.4245 78.6924 25.4723 78.5617C25.5201 78.431 25.5398 78.2914 25.5301 78.1522C25.5204 78.0131 25.4816 77.8777 25.4162 77.7552C25.3507 77.6328 25.2603 77.5261 25.151 77.4424L24.1017 76.3714Z" fill="#1077BE"/>
<circle cx="88" cy="56" r="45" fill="#3DB76C"/>
<path d="M113 48.45V71C113 73.75 110.75 76 108 76H68C65.25 76 63 73.75 63 71L63.025 41C63.025 38.25 65.25 36 68 36H93.25C93.1 36.8 93 37.65 93 38.5C93 39.35 93.1 40.2 93.25 41H68L88 53.5L97.175 47.775C98.35 48.85 99.725 49.675 101.25 50.225L88 58.5L68 46V71H108V50.75C109.85 50.375 111.55 49.55 113 48.45ZM98 38.5C98 42.65 101.35 46 105.5 46C109.65 46 113 42.65 113 38.5C113 34.35 109.65 31 105.5 31C101.35 31 98 34.35 98 38.5Z" fill="white"/>
</svg>
