<svg width="110" height="77" viewBox="0 0 110 77" fill="none" xmlns="http://www.w3.org/2000/svg">
<path d="M66 49.3781V60.351H82.5V76.8103H93.5V60.351H110V49.3781H93.5V32.9187H82.5V49.3781H66ZM65.835 30.779C65.175 23.482 58.245 16.2948 49.5 16.4594C40.15 16.624 33 23.5917 33 32.9187C33 42.2457 40.15 49.0489 49.5 49.3781C51.59 49.3781 53.735 48.9392 55.77 48.1162C57.255 42.0811 59.73 36.3752 65.835 30.779ZM55 54.8645H22C22 51.9543 20.8411 49.1633 18.7782 47.1055C16.7153 45.0477 13.9174 43.8916 11 43.8916V21.9458C17.105 21.9458 22 17.0629 22 10.9729H77C77 13.8831 78.1589 16.6741 80.2218 18.7319C82.2847 20.7897 85.0826 21.9458 88 21.9458V22.275C91.685 22.275 95.37 22.9334 99 24.1404V0H0V65.8374H56.76C55.5913 62.2966 54.9972 58.5923 55 54.8645Z" fill="white"/>
</svg>
