<?xml version="1.0" encoding="UTF-8"?>
<svg width="150px" height="42px" viewBox="0 0 150 42" version="1.1" xmlns="http://www.w3.org/2000/svg" xmlns:xlink="http://www.w3.org/1999/xlink">
    <!-- Generator: Sketch 53.2 (72643) - https://sketchapp.com -->
    <title>logo</title>
    <desc>Created with Sketch.</desc>
    <defs>
        <polygon id="path-1" points="0.0197 0.545 2.0197 0.545 2.0197 42.5439 0.0197 42.5439"></polygon>
        <path d="M10.813,0.385 C9.629,0.43 8.433,0.569 7.227,0.83 L7.227,0.83 C6.024,1.131 4.818,1.51 3.633,2.088 L3.633,2.088 C2.45,2.669 1.278,3.362 0.211,4.385 L0.211,4.385 L0.284,4.612 C1.36,3.857 2.519,3.371 3.658,2.996 L3.658,2.996 C4.802,2.629 5.95,2.405 7.085,2.288 L7.085,2.288 C9.358,2.049 11.581,2.24 13.717,2.724 L13.717,2.724 C15.852,3.209 17.909,3.987 19.879,4.967 L19.879,4.967 C21.849,5.964 23.826,6.96 25.846,7.849 L25.846,7.849 C27.872,8.724 29.938,9.503 32.097,9.996 L32.097,9.996 C34.255,10.484 36.516,10.673 38.838,10.276 L38.838,10.276 C41.159,9.891 43.513,8.891 45.741,7.407 L45.741,7.407 C47.971,5.921 50.073,4.003 52.053,1.902 L52.053,1.902 L51.951,1.701 C49.78,3.407 47.625,5.012 45.436,6.128 L45.436,6.128 C44.352,6.705 43.265,7.177 42.183,7.5 L42.183,7.5 C41.645,7.658 41.107,7.806 40.573,7.917 L40.573,7.917 C40.04,8.027 39.508,8.104 38.981,8.149 L38.981,8.149 C34.758,8.489 30.783,6.978 26.829,5.265 L26.829,5.265 C25.836,4.84 24.847,4.389 23.859,3.923 L23.859,3.923 L20.863,2.541 C19.819,2.084 18.758,1.661 17.661,1.34 L17.661,1.34 C17.114,1.178 16.562,1.024 16.004,0.899 L16.004,0.899 C15.443,0.781 14.874,0.68 14.303,0.601 L14.303,0.601 C13.34,0.472 12.368,0.374 11.378,0.374 L11.378,0.374 C11.191,0.374 11.002,0.378 10.813,0.385" id="path-3"></path>
        <linearGradient x1="5.46121542%" y1="44.3205908%" x2="100.22275%" y2="48.2062564%" id="linearGradient-5">
            <stop stop-color="#BD212E" offset="0%"></stop>
            <stop stop-color="#672D37" offset="100%"></stop>
        </linearGradient>
        <path d="M9.586,0.208 C8.545,0.264 7.495,0.398 6.441,0.646 L6.441,0.646 C5.384,0.924 4.327,1.277 3.292,1.803 L3.292,1.803 C2.257,2.335 1.233,2.967 0.313,3.887 L0.313,3.887 L0.383,4.114 C1.318,3.46 2.326,3.037 3.316,2.713 L3.316,2.713 C4.312,2.397 5.309,2.201 6.296,2.104 L6.296,2.104 C8.271,1.895 10.204,2.062 12.062,2.484 L12.062,2.484 C13.922,2.908 15.707,3.585 17.421,4.438 L17.421,4.438 C19.135,5.307 20.858,6.174 22.615,6.949 L22.615,6.949 C24.377,7.71 26.181,8.388 28.06,8.817 L28.06,8.817 C29.94,9.242 31.911,9.404 33.936,9.057 L33.936,9.057 C35.955,8.721 38.008,7.848 39.948,6.555 L39.948,6.555 C41.893,5.256 43.72,3.587 45.447,1.753 L45.447,1.753 L45.342,1.556 C43.427,2.986 41.545,4.346 39.645,5.276 L39.645,5.276 C38.702,5.758 37.763,6.15 36.831,6.413 L36.831,6.413 C36.367,6.536 35.906,6.66 35.446,6.751 L35.446,6.751 C34.986,6.839 34.532,6.899 34.078,6.929 L34.078,6.929 C30.454,7.171 27.032,5.855 23.597,4.364 L23.597,4.364 C22.735,3.998 21.876,3.605 21.017,3.203 L21.017,3.203 L18.407,2.012 C17.493,1.617 16.562,1.252 15.598,0.98 L15.598,0.98 C15.117,0.84 14.634,0.709 14.141,0.606 L14.141,0.606 C13.649,0.507 13.15,0.426 12.648,0.359 L12.648,0.359 C11.857,0.264 11.06,0.191 10.249,0.191 L10.249,0.191 C10.03,0.191 9.809,0.196 9.586,0.208" id="path-6"></path>
        <linearGradient x1="5.47890061%" y1="44.1386389%" x2="100.251924%" y2="48.1337917%" id="linearGradient-8">
            <stop stop-color="#BD212E" offset="0%"></stop>
            <stop stop-color="#672D37" offset="100%"></stop>
        </linearGradient>
        <path d="M26.675,2.734 C25.378,3.436 24.103,4.013 22.861,4.386 L22.861,4.386 C20.377,5.138 17.977,5.117 15.61,4.621 L15.61,4.621 C13.239,4.13 10.88,3.21 8.401,2.386 L8.401,2.386 C7.159,1.98 5.888,1.593 4.567,1.331 L4.567,1.331 C3.906,1.205 3.239,1.092 2.554,1.048 L2.554,1.048 C2.21,1.025 1.865,1.008 1.521,1.002 L1.521,1.002 C1.171,1.013 0.821,1.013 0.469,1.058 L0.469,1.058 L0.388,1.323 C1.639,1.685 2.845,2.182 4.033,2.733 L4.033,2.733 C5.223,3.267 6.395,3.858 7.571,4.44 L7.571,4.44 C9.925,5.598 12.309,6.744 14.897,7.288 L14.897,7.288 C16.192,7.547 17.536,7.648 18.906,7.52 L18.906,7.52 C20.279,7.387 21.678,7.033 23.055,6.423 L23.055,6.423 C24.43,5.813 25.777,4.961 27.064,3.953 L27.064,3.953 C28.35,2.931 29.578,1.763 30.754,0.503 L30.754,0.503 L30.651,0.306 C29.282,1.167 27.982,2.049 26.675,2.734" id="path-9"></path>
        <linearGradient x1="5.19312982%" y1="41.529381%" x2="100.378668%" y2="46.3174567%" id="linearGradient-11">
            <stop stop-color="#BD212E" offset="0%"></stop>
            <stop stop-color="#672D37" offset="100%"></stop>
        </linearGradient>
        <path d="M23.415,2.508 C22.849,2.803 22.267,3.077 21.735,3.295 L21.735,3.295 C21.437,3.416 21.174,3.524 20.898,3.621 L20.898,3.621 C20.626,3.718 20.353,3.797 20.083,3.88 L20.083,3.88 C17.924,4.503 15.87,4.449 13.799,4.027 L13.799,4.027 C11.729,3.612 9.642,2.854 7.446,2.188 L7.446,2.188 C6.346,1.864 5.217,1.556 4.043,1.36 L4.043,1.36 C3.454,1.265 2.862,1.183 2.25,1.162 L2.25,1.162 C1.944,1.152 1.641,1.145 1.334,1.146 L1.334,1.146 C1.021,1.167 0.712,1.174 0.396,1.225 L0.396,1.225 L0.314,1.488 C1.409,1.83 2.465,2.274 3.507,2.759 L3.507,2.759 C4.555,3.233 5.588,3.745 6.627,4.246 L6.627,4.246 C8.703,5.246 10.811,6.226 13.094,6.7 L13.094,6.7 C14.235,6.921 15.417,7.009 16.626,6.893 L16.626,6.893 C17.832,6.781 19.066,6.457 20.278,5.917 L20.278,5.917 C21.49,5.377 22.674,4.62 23.807,3.727 L23.807,3.727 C24.937,2.82 26.014,1.782 27.048,0.676 L27.048,0.676 L26.944,0.48 C25.718,1.19 24.566,1.938 23.415,2.508" id="path-12"></path>
        <linearGradient x1="5.3099121%" y1="41.3063946%" x2="100.429171%" y2="46.1392917%" id="linearGradient-14">
            <stop stop-color="#BD212E" offset="0%"></stop>
            <stop stop-color="#672D37" offset="100%"></stop>
        </linearGradient>
    </defs>
    <g id="Symbols" stroke="none" stroke-width="1" fill="none" fill-rule="evenodd">
        <g id="Nav/Header/Public" transform="translate(-1.000000, -7.000000)">
            <g id="logo" transform="translate(1.000000, 6.455100)">
                <polygon id="Fill-1" fill="#123559" points="72.756 24.8281 64.318 24.8281 64.318 33.5441 59.924 33.5441 59.924 12.2161 73.811 12.2161 73.811 15.7751 64.318 15.7751 64.318 21.2831 72.756 21.2831"></polygon>
                <polygon id="Fill-2" fill="#123559" points="76.637 33.544 81.032 33.544 81.032 12.216 76.637 12.216"></polygon>
                <g id="Group-27" transform="translate(85.000000, 0.000000)">
                    <path d="M4.4992,22.1767 L8.0442,22.1767 C9.1472,22.1767 10.0022,21.8967 10.6072,21.3347 C11.2132,20.7737 11.5162,19.9987 11.5162,19.0127 C11.5162,18.0067 11.2302,17.2157 10.6592,16.6397 C10.0872,16.0637 9.2112,15.7757 8.0292,15.7757 L4.4992,15.7757 L4.4992,22.1767 Z M8.0002,25.7367 L4.4992,25.7367 L4.4992,33.5437 L0.1042,33.5437 L0.1042,12.2157 L8.0292,12.2157 C10.5492,12.2157 12.4922,12.7777 13.8592,13.9007 C15.2272,15.0237 15.9102,16.6107 15.9102,18.6607 C15.9102,20.1157 15.5952,21.3297 14.9652,22.3017 C14.3352,23.2737 13.3812,24.0467 12.1022,24.6227 L16.7162,33.3387 L16.7162,33.5437 L11.9992,33.5437 L8.0002,25.7367 Z" id="Fill-3" fill="#123559"></path>
                    <polygon id="Fill-5" fill="#123559" points="24.9923 12.2157 30.4713 27.6847 35.9203 12.2157 41.6913 12.2157 41.6913 33.5437 37.2823 33.5437 37.2823 27.7137 37.7213 17.6507 31.9653 33.5437 28.9473 33.5437 23.2053 17.6647 23.6443 27.7137 23.6443 33.5437 19.2503 33.5437 19.2503 12.2157"></polygon>
                    <g id="Group-9" transform="translate(62.000000, 0.000000)">
                        <mask id="mask-2" fill="white">
                            <use xlink:href="#path-1"></use>
                        </mask>
                        <g id="Clip-8"></g>
                        <polyline id="Fill-7" fill="#AB1E2B" mask="url(#mask-2)" points="2.0197 42.5439 2.0197 0.5449 0.0197 0.5449 0.0197 42.5439"></polyline>
                    </g>
                </g>
                <g id="Group-30" transform="translate(0.000000, 25.000000)">
                    <mask id="mask-4" fill="white">
                        <use xlink:href="#path-3"></use>
                    </mask>
                    <g id="Clip-29"></g>
                    <path d="M10.813,0.385 C9.629,0.43 8.433,0.569 7.227,0.83 L7.227,0.83 C6.024,1.131 4.818,1.51 3.633,2.088 L3.633,2.088 C2.45,2.669 1.278,3.362 0.211,4.385 L0.211,4.385 L0.284,4.612 C1.36,3.857 2.519,3.371 3.658,2.996 L3.658,2.996 C4.802,2.629 5.95,2.405 7.085,2.288 L7.085,2.288 C9.358,2.049 11.581,2.24 13.717,2.724 L13.717,2.724 C15.852,3.209 17.909,3.987 19.879,4.967 L19.879,4.967 C21.849,5.964 23.826,6.96 25.846,7.849 L25.846,7.849 C27.872,8.724 29.938,9.503 32.097,9.996 L32.097,9.996 C34.255,10.484 36.516,10.673 38.838,10.276 L38.838,10.276 C41.159,9.891 43.513,8.891 45.741,7.407 L45.741,7.407 C47.971,5.921 50.073,4.003 52.053,1.902 L52.053,1.902 L51.951,1.701 C49.78,3.407 47.625,5.012 45.436,6.128 L45.436,6.128 C44.352,6.705 43.265,7.177 42.183,7.5 L42.183,7.5 C41.645,7.658 41.107,7.806 40.573,7.917 L40.573,7.917 C40.04,8.027 39.508,8.104 38.981,8.149 L38.981,8.149 C34.758,8.489 30.783,6.978 26.829,5.265 L26.829,5.265 C25.836,4.84 24.847,4.389 23.859,3.923 L23.859,3.923 L20.863,2.541 C19.819,2.084 18.758,1.661 17.661,1.34 L17.661,1.34 C17.114,1.178 16.562,1.024 16.004,0.899 L16.004,0.899 C15.443,0.781 14.874,0.68 14.303,0.601 L14.303,0.601 C13.34,0.472 12.368,0.374 11.378,0.374 L11.378,0.374 C11.191,0.374 11.002,0.378 10.813,0.385" id="Fill-28" fill="url(#linearGradient-5)" mask="url(#mask-4)"></path>
                </g>
                <g id="Group-33" transform="translate(5.000000, 20.000000)">
                    <mask id="mask-7" fill="white">
                        <use xlink:href="#path-6"></use>
                    </mask>
                    <g id="Clip-32"></g>
                    <path d="M9.586,0.208 C8.545,0.264 7.495,0.398 6.441,0.646 L6.441,0.646 C5.384,0.924 4.327,1.277 3.292,1.803 L3.292,1.803 C2.257,2.335 1.233,2.967 0.313,3.887 L0.313,3.887 L0.383,4.114 C1.318,3.46 2.326,3.037 3.316,2.713 L3.316,2.713 C4.312,2.397 5.309,2.201 6.296,2.104 L6.296,2.104 C8.271,1.895 10.204,2.062 12.062,2.484 L12.062,2.484 C13.922,2.908 15.707,3.585 17.421,4.438 L17.421,4.438 C19.135,5.307 20.858,6.174 22.615,6.949 L22.615,6.949 C24.377,7.71 26.181,8.388 28.06,8.817 L28.06,8.817 C29.94,9.242 31.911,9.404 33.936,9.057 L33.936,9.057 C35.955,8.721 38.008,7.848 39.948,6.555 L39.948,6.555 C41.893,5.256 43.72,3.587 45.447,1.753 L45.447,1.753 L45.342,1.556 C43.427,2.986 41.545,4.346 39.645,5.276 L39.645,5.276 C38.702,5.758 37.763,6.15 36.831,6.413 L36.831,6.413 C36.367,6.536 35.906,6.66 35.446,6.751 L35.446,6.751 C34.986,6.839 34.532,6.899 34.078,6.929 L34.078,6.929 C30.454,7.171 27.032,5.855 23.597,4.364 L23.597,4.364 C22.735,3.998 21.876,3.605 21.017,3.203 L21.017,3.203 L18.407,2.012 C17.493,1.617 16.562,1.252 15.598,0.98 L15.598,0.98 C15.117,0.84 14.634,0.709 14.141,0.606 L14.141,0.606 C13.649,0.507 13.15,0.426 12.648,0.359 L12.648,0.359 C11.857,0.264 11.06,0.191 10.249,0.191 L10.249,0.191 C10.03,0.191 9.809,0.196 9.586,0.208" id="Fill-31" fill="url(#linearGradient-8)" mask="url(#mask-7)"></path>
                </g>
                <g id="Group-36" transform="translate(20.000000, 16.000000)">
                    <mask id="mask-10" fill="white">
                        <use xlink:href="#path-9"></use>
                    </mask>
                    <g id="Clip-35"></g>
                    <path d="M26.675,2.734 C25.378,3.436 24.103,4.013 22.861,4.386 L22.861,4.386 C20.377,5.138 17.977,5.117 15.61,4.621 L15.61,4.621 C13.239,4.13 10.88,3.21 8.401,2.386 L8.401,2.386 C7.159,1.98 5.888,1.593 4.567,1.331 L4.567,1.331 C3.906,1.205 3.239,1.092 2.554,1.048 L2.554,1.048 C2.21,1.025 1.865,1.008 1.521,1.002 L1.521,1.002 C1.171,1.013 0.821,1.013 0.469,1.058 L0.469,1.058 L0.388,1.323 C1.639,1.685 2.845,2.182 4.033,2.733 L4.033,2.733 C5.223,3.267 6.395,3.858 7.571,4.44 L7.571,4.44 C9.925,5.598 12.309,6.744 14.897,7.288 L14.897,7.288 C16.192,7.547 17.536,7.648 18.906,7.52 L18.906,7.52 C20.279,7.387 21.678,7.033 23.055,6.423 L23.055,6.423 C24.43,5.813 25.777,4.961 27.064,3.953 L27.064,3.953 C28.35,2.931 29.578,1.763 30.754,0.503 L30.754,0.503 L30.651,0.306 C29.282,1.167 27.982,2.049 26.675,2.734" id="Fill-34" fill="url(#linearGradient-11)" mask="url(#mask-10)"></path>
                </g>
                <g id="Group-39" transform="translate(23.000000, 11.000000)">
                    <mask id="mask-13" fill="white">
                        <use xlink:href="#path-12"></use>
                    </mask>
                    <g id="Clip-38"></g>
                    <path d="M23.415,2.508 C22.849,2.803 22.267,3.077 21.735,3.295 L21.735,3.295 C21.437,3.416 21.174,3.524 20.898,3.621 L20.898,3.621 C20.626,3.718 20.353,3.797 20.083,3.88 L20.083,3.88 C17.924,4.503 15.87,4.449 13.799,4.027 L13.799,4.027 C11.729,3.612 9.642,2.854 7.446,2.188 L7.446,2.188 C6.346,1.864 5.217,1.556 4.043,1.36 L4.043,1.36 C3.454,1.265 2.862,1.183 2.25,1.162 L2.25,1.162 C1.944,1.152 1.641,1.145 1.334,1.146 L1.334,1.146 C1.021,1.167 0.712,1.174 0.396,1.225 L0.396,1.225 L0.314,1.488 C1.409,1.83 2.465,2.274 3.507,2.759 L3.507,2.759 C4.555,3.233 5.588,3.745 6.627,4.246 L6.627,4.246 C8.703,5.246 10.811,6.226 13.094,6.7 L13.094,6.7 C14.235,6.921 15.417,7.009 16.626,6.893 L16.626,6.893 C17.832,6.781 19.066,6.457 20.278,5.917 L20.278,5.917 C21.49,5.377 22.674,4.62 23.807,3.727 L23.807,3.727 C24.937,2.82 26.014,1.782 27.048,0.676 L27.048,0.676 L26.944,0.48 C25.718,1.19 24.566,1.938 23.415,2.508" id="Fill-37" fill="url(#linearGradient-14)" mask="url(#mask-13)"></path>
                </g>
                <path d="M21.8595,11.3759 C21.8595,11.3759 19.8155,13.5309 18.9265,16.2409 C18.8175,16.5709 16.3365,15.0289 11.1395,17.6949 C11.1395,17.6949 16.1745,12.4259 17.0785,11.9939 C17.9815,11.5629 21.8595,11.3759 21.8595,11.3759" id="Fill-40" fill="#1F1F1F"></path>
            </g>
        </g>
    </g>
</svg>