<svg width="280" height="45" viewBox="0 0 280 45" fill="none" xmlns="http://www.w3.org/2000/svg">
<path d="M53.2799 0H51.1016V44.4197H53.2799V0Z" fill="#3DB76C"/>
<path d="M1.26577 0.706543L0 6.68215H13.8057L15.0126 0.706543H1.26577Z" fill="#3DB76C"/>
<path d="M43.7417 7.97757C43.2707 6.59405 42.6231 5.32828 41.74 4.23913C40.8569 3.14998 39.7972 2.26689 38.5609 1.64872C37.9722 1.35436 37.354 1.11886 36.7064 0.97168L35.1757 7.53602C35.4995 7.77151 35.7939 8.03644 36.0588 8.38968C36.9713 9.50827 37.4129 11.0095 37.4129 12.864C37.4129 14.1887 37.2068 15.4544 36.7653 16.6613C36.3532 17.8388 35.7644 18.8985 35.0285 19.811C34.2926 20.7236 33.4684 21.43 32.5264 21.9599C31.5844 22.4898 30.5836 22.7547 29.5239 22.7547H22.0176L20.7812 28.7597H28.6114C30.7602 28.7597 32.7913 28.2888 34.7047 27.3173C36.6181 26.3459 38.296 25.0802 39.7384 23.52C41.1807 21.9599 42.2993 20.2232 43.153 18.2509C44.0067 16.2787 44.4188 14.3359 44.4188 12.3342C44.4482 10.8329 44.2127 9.39052 43.7417 7.97757Z" fill="#1077BE"/>
<path d="M34.3222 0.706684H23.784H17.1313L7.97656 43.684H14.747H14.8058L17.9555 28.7302L19.2213 22.7252L22.6654 6.6823H32.556C32.7621 6.6823 32.9682 6.71173 33.1742 6.71173L34.646 0.677246C34.5283 0.706683 34.44 0.706684 34.3222 0.706684Z" fill="#3DB76C"/>
<path d="M72.8855 35.9714L70.3834 39.6804H70.1773L67.6458 35.942V41.741H66.9688V35C67.2631 35 67.4986 35 67.793 35L70.2656 38.709L72.7089 35H73.5625V41.741H72.8855V35.9714Z" fill="#3DB76C"/>
<path d="M89.547 38.356C89.547 40.1222 88.4285 41.8295 86.1324 41.8295C83.8364 41.8295 82.7178 40.1222 82.7178 38.356C82.7178 36.472 83.9541 34.853 86.1324 34.853C88.399 34.853 89.547 36.5603 89.547 38.356ZM86.1324 41.2113C87.9869 41.2113 88.87 39.8278 88.87 38.356C88.87 36.8547 87.9869 35.5006 86.1324 35.4712C84.3073 35.4712 83.3654 36.7664 83.3948 38.356C83.3948 39.8278 84.2779 41.2113 86.1324 41.2113Z" fill="#3DB76C"/>
<path d="M103.47 40.4459L103.44 38.2087V34.9707H104.117V41.7117H103.705L99.3488 36.2953L99.3782 38.297V41.7411H98.7012V35.0001H99.1133L103.47 40.4459Z" fill="#3DB76C"/>
<path d="M118.541 41.7117H113.714C113.714 39.4745 113.714 37.2079 113.714 34.9707H118.453V35.6183H114.391V38.0321H118.277V38.6503H114.391V41.0641H118.541V41.7117Z" fill="#3DB76C"/>
<path d="M129.992 38.3559L132.171 34.9707H132.965V35.0001L130.346 39.0035V41.7117H129.669V39.0035L127.078 35.0001V34.9707H127.873L129.992 38.3559Z" fill="#3DB76C"/>
<path d="M153.042 35.6183H150.657V34.9707C152.571 34.9707 154.19 34.9707 156.103 34.9707V35.6183H153.719V41.7411H153.042V35.6183Z" fill="#3DB76C"/>
<path d="M170.438 41.7117H169.555L167.318 39.239H165.581V41.7117H164.904V34.9707C165.905 34.9707 166.906 34.9707 167.936 34.9707C169.438 34.9707 170.173 35.9715 170.173 37.1196C170.173 38.1793 169.555 39.1213 168.142 39.1801L170.438 41.7117ZM165.581 35.6183V38.5914H167.907C168.996 38.5914 169.496 37.9438 169.496 37.1196C169.496 36.2659 168.967 35.6183 167.936 35.6183H165.581Z" fill="#3DB76C"/>
<path d="M184.038 40.1515H180.123L179.416 41.7117H178.71L181.742 34.9707H182.419L185.451 41.7117H184.744L184.038 40.1515ZM180.388 39.5334H183.773L182.095 35.7066L180.388 39.5334Z" fill="#3DB76C"/>
<path d="M199.08 40.4459L199.051 38.2087V34.9707H199.728V41.7117H199.316L194.959 36.2953L194.989 38.297V41.7411H194.312V35.0001H194.724L199.08 40.4459Z" fill="#3DB76C"/>
<path d="M213.504 36.3541C213.121 35.7065 212.268 35.5005 211.561 35.5005C210.737 35.5005 209.677 35.736 209.677 36.7368C209.677 37.5316 210.531 37.7377 211.591 37.9143C212.915 38.1498 214.269 38.4441 214.269 39.8865C214.269 41.4172 212.798 41.8293 211.561 41.8293C210.413 41.8293 209.265 41.4172 208.735 40.3281L209.324 40.0043C209.795 40.8579 210.737 41.1817 211.561 41.1817C212.385 41.1817 213.563 40.9462 213.563 39.8865C213.563 38.974 212.562 38.7385 211.502 38.5619C210.237 38.3264 208.971 38.0615 208.971 36.7368C208.941 35.3239 210.384 34.8823 211.532 34.8823C212.444 34.8823 213.445 35.1473 214.034 36.0598L213.504 36.3541Z" fill="#3DB76C"/>
<path d="M223.365 41.7117V34.9707H227.987V35.6183H224.042V38.1793H227.84V38.8269H224.042V41.7411H223.365V41.7117Z" fill="#3DB76C"/>
<path d="M241.969 41.7117H237.142C237.142 39.4745 237.142 37.2079 237.142 34.9707H241.881V35.6183H237.819V38.0321H241.704V38.6503H237.819V41.0641H241.969V41.7117Z" fill="#3DB76C"/>
<path d="M256.687 41.7117H255.804L253.567 39.239H251.83V41.7117H251.153V34.9707C252.154 34.9707 253.155 34.9707 254.185 34.9707C255.687 34.9707 256.422 35.9715 256.422 37.1196C256.422 38.1793 255.804 39.1213 254.391 39.1801L256.687 41.7117ZM251.83 35.6183V38.5914H254.156C255.245 38.5914 255.745 37.9438 255.745 37.1196C255.745 36.2659 255.216 35.6183 254.185 35.6183H251.83Z" fill="#3DB76C"/>
<path d="M70.6185 5.18102H61.4932L61.9347 2.73779C69.2644 2.73779 75.4755 2.73779 82.7758 2.73779L82.3342 5.18102H73.2089L69.0583 28.6125H66.4679L70.6185 5.18102Z" fill="#1077BE"/>
<path d="M85.66 10.3617L85.2774 13.3643C86.8669 10.921 89.4868 10.0674 91.6651 10.0674C93.343 10.0674 94.4027 10.4501 95.5507 11.3626L94.0494 13.4231C93.2252 12.805 92.2832 12.4517 91.1058 12.4517C87.9561 12.4517 85.0419 14.895 84.4531 18.2213L82.5986 28.6124H80.126L83.3346 10.3617H85.66Z" fill="#1077BE"/>
<path d="M115.656 10.3617H117.982C116.922 16.4551 115.833 22.519 114.773 28.6124H112.477L113.154 25.0211C111.093 27.7293 107.944 28.9656 105.206 28.9656C100.408 28.9656 97.376 25.9042 97.376 21.0472C97.376 14.424 102.733 10.0674 108.591 10.0674C111.388 10.0674 114.125 11.3626 115.067 13.953L115.656 10.3617ZM99.8486 20.6645C99.8486 24.2852 101.556 26.6401 105.5 26.6401C114.92 26.6401 117.628 12.334 108.209 12.334C103.881 12.334 99.8486 15.7781 99.8486 20.6645Z" fill="#1077BE"/>
<path d="M136.969 28.6122L138.794 18.3683C139.5 14.4533 137.94 12.3927 133.878 12.3927C130.316 12.3927 127.402 15.1598 126.784 18.6921L125.047 28.6417H122.574L125.783 10.391H128.138L127.667 13.4524C129.639 11.127 132.171 10.0967 134.643 10.0967C139.382 10.0967 142.267 12.8931 141.296 18.3683L139.471 28.6417H136.969V28.6122Z" fill="#1077BE"/>
<path d="M147.742 23.8728C149.155 25.9922 151.598 26.6399 153.835 26.6693C155.984 26.6693 159.192 26.1394 159.487 23.5196C159.781 20.8703 156.602 20.6054 154.689 20.2521C151.539 19.6928 148.242 18.9569 148.301 15.7778C148.389 11.4506 152.746 9.89048 156.661 9.94935C159.398 9.94935 161.518 10.6853 163.107 12.422L161.371 14.041C160.046 12.5986 158.192 12.1865 156.308 12.1865C153.511 12.1865 150.832 13.0991 150.774 15.4834C150.685 17.4851 153.217 17.8383 155.307 18.1327C159.222 18.7214 162.195 19.8106 161.959 23.4901C161.724 27.4935 157.191 28.9359 153.423 28.9359C150.42 28.9359 148.036 27.9351 146.211 25.7273L147.742 23.8728Z" fill="#1077BE"/>
<path d="M169.29 28.6123L172.087 12.6872H168.466L168.848 10.5383H172.469L172.734 9.03707C173.499 4.41553 175.796 2.56104 179.711 2.56104C181.153 2.56104 182.301 3.00258 183.331 3.88568L182.007 5.71074C181.124 5.12201 180.446 4.79821 179.387 4.79821C177.267 4.79821 175.737 5.9168 175.207 9.03707L174.942 10.5383H180.77L180.388 12.6872H174.559L171.763 28.6123H169.29Z" fill="#1077BE"/>
<path d="M201.199 10.3617H203.524C202.465 16.4551 201.376 22.519 200.316 28.6124H198.02L198.697 25.0211C196.636 27.7293 193.487 28.9656 190.749 28.9656C185.951 28.9656 182.919 25.9042 182.919 21.0472C182.919 14.424 188.276 10.0674 194.134 10.0674C196.931 10.0674 199.668 11.3626 200.61 13.953L201.199 10.3617ZM185.421 20.6645C185.421 24.2852 187.128 26.6401 191.073 26.6401C200.493 26.6401 203.201 12.334 193.781 12.334C189.424 12.334 185.421 15.7781 185.421 20.6645Z" fill="#1077BE"/>
<path d="M212.738 19.9876L211.237 28.6125H208.646L213.18 2.73779C217.036 2.73779 220.892 2.73779 224.748 2.73779C235.964 2.73779 233.609 20.017 221.716 20.017H212.738V19.9876ZM213.18 17.5444H222.158C230.253 17.5444 232.431 5.00441 224.336 5.00441H215.387L213.18 17.5444Z" fill="#1077BE"/>
<path d="M253.331 10.3617H255.656C254.597 16.4551 253.507 22.519 252.448 28.6124H250.152L250.829 25.0211C248.768 27.7293 245.618 28.9656 242.881 28.9656C238.083 28.9656 235.051 25.9042 235.051 21.0472C235.051 14.424 240.408 10.0674 246.266 10.0674C249.063 10.0674 251.8 11.3626 252.742 13.953L253.331 10.3617ZM237.523 20.6645C237.523 24.2852 239.231 26.6401 243.175 26.6401C252.595 26.6401 255.303 12.334 245.883 12.334C241.556 12.334 237.523 15.7781 237.523 20.6645Z" fill="#1077BE"/>
<path d="M280 10.3618H277.528L275.791 20.3114C275.173 23.8143 272.141 26.6108 268.609 26.6108C264.576 26.6402 263.104 24.4325 263.752 20.6352L265.577 10.3913H263.104L261.279 20.6646C260.366 25.8749 263.163 28.9362 267.902 28.9362C270.463 28.9068 273.053 28.0237 274.967 25.5805L274.29 29.2895C274.26 29.4661 274.231 29.6427 273.289 33.4989C272.318 37.5906 269.374 39.2979 266.254 39.2979C262.78 39.2979 260.896 38.2676 261.191 34.9707H258.924C258.482 39.1213 260.808 41.6234 265.871 41.6234C269.933 41.6234 273.377 39.7394 275.055 35.6772C275.261 35.1768 275.467 34.6175 275.614 34.0288C275.673 33.8227 275.732 33.6167 275.762 33.4106C276.674 29.5839 276.704 29.4072 276.733 29.2306L280 10.3618Z" fill="#1077BE"/>
</svg>
