<svg width="39" height="39" viewBox="0 0 39 39" fill="none" xmlns="http://www.w3.org/2000/svg">
<path d="M37.5 19.5C37.5 29.4411 29.4411 37.5 19.5 37.5C9.55888 37.5 1.5 29.4411 1.5 19.5C1.5 9.55888 9.55888 1.5 19.5 1.5C29.4411 1.5 37.5 9.55888 37.5 19.5Z" fill="white" stroke="#B31F31" stroke-width="3"/>
<path d="M10 14.25H30V24.25H10V14.25ZM17.5391 23C16.6797 22.0104 16.25 20.7604 16.25 19.25C16.25 17.7396 16.6797 16.4896 17.5391 15.5H13.75C13.75 16.1771 13.5026 16.763 13.0078 17.2578C12.513 17.7526 11.9271 18 11.25 18V21.125C11.7708 21.125 12.2135 21.3073 12.5781 21.6719C12.9427 22.0365 13.125 22.4792 13.125 23H17.5391ZM21.6406 20.6953C21.7448 20.5651 21.7969 20.3698 21.7969 20.1094C21.7969 19.9792 21.7839 19.875 21.7578 19.7969C21.7057 19.6406 21.6536 19.5365 21.6016 19.4844C21.4974 19.3802 21.4062 19.3021 21.3281 19.25C21.1719 19.1458 21.0417 19.0807 20.9375 19.0547C20.9115 19.0547 20.8203 19.0286 20.6641 18.9766C20.638 18.9505 20.5859 18.9375 20.5078 18.9375C20.4297 18.9375 20.3776 18.9375 20.3516 18.9375V17.7266C20.3776 17.7526 20.4167 17.7786 20.4688 17.8047C20.5469 17.8307 20.599 17.8438 20.625 17.8438C20.7812 17.9479 20.8724 18.1172 20.8984 18.3516H21.6797C21.6797 18.2214 21.6276 18.0521 21.5234 17.8438C21.4453 17.6615 21.3281 17.5182 21.1719 17.4141C21.0156 17.3099 20.8333 17.2318 20.625 17.1797C20.5208 17.1276 20.4297 17.1016 20.3516 17.1016V16.75H19.6484V17.1016C19.5964 17.1016 19.5182 17.1276 19.4141 17.1797C19.1536 17.2318 18.9714 17.2969 18.8672 17.375C18.7109 17.5052 18.5938 17.6354 18.5156 17.7656C18.4115 17.974 18.3594 18.1562 18.3594 18.3125C18.3594 18.4427 18.3724 18.5469 18.3984 18.625C18.4245 18.7552 18.4766 18.8464 18.5547 18.8984C18.6849 19.0286 18.7891 19.1198 18.8672 19.1719C19.0234 19.276 19.1797 19.3411 19.3359 19.3672C19.362 19.3932 19.4141 19.4062 19.4922 19.4062C19.5703 19.4062 19.6224 19.4062 19.6484 19.4062V20.7734C19.4922 20.7214 19.375 20.6693 19.2969 20.6172C19.1667 20.5391 19.0885 20.4479 19.0625 20.3438C19.0104 20.1875 18.9844 20.0703 18.9844 19.9922H18.2031C18.2031 20.1484 18.2552 20.3568 18.3594 20.6172C18.4635 20.7734 18.5938 20.9167 18.75 21.0469C18.9583 21.2031 19.1536 21.2943 19.3359 21.3203C19.4922 21.3724 19.5964 21.3984 19.6484 21.3984V21.75H20.3516V21.3984C20.4297 21.3984 20.5469 21.3724 20.7031 21.3203C20.9635 21.2682 21.1458 21.2031 21.25 21.125C21.3542 21.0469 21.4844 20.9036 21.6406 20.6953ZM28.75 21.125V18C28.0729 18 27.487 17.7526 26.9922 17.2578C26.4974 16.763 26.25 16.1771 26.25 15.5H22.4609C23.3203 16.4896 23.75 17.7396 23.75 19.25C23.75 20.7604 23.3203 22.0104 22.4609 23H26.875C26.875 22.4792 27.0573 22.0365 27.4219 21.6719C27.7865 21.3073 28.2292 21.125 28.75 21.125ZM13.75 20.5C12.9167 20.5 12.5 20.0833 12.5 19.25C12.5 18.4167 12.9167 18 13.75 18C14.5833 18 15 18.4167 15 19.25C15 20.0833 14.5833 20.5 13.75 20.5ZM26.25 20.5C25.4167 20.5 25 20.0833 25 19.25C25 18.4167 25.4167 18 26.25 18C27.0833 18 27.5 18.4167 27.5 19.25C27.5 20.0833 27.0833 20.5 26.25 20.5ZM20.6641 19.6797C20.7682 19.7318 20.8464 19.7839 20.8984 19.8359C20.9766 19.9141 21.0156 20.0312 21.0156 20.1875C21.0156 20.2917 21.0026 20.3698 20.9766 20.4219C20.9245 20.526 20.8724 20.5911 20.8203 20.6172L20.5078 20.7734L20.4688 20.8125C20.4167 20.8125 20.3776 20.8125 20.3516 20.8125V19.6016C20.3776 19.6016 20.4297 19.6146 20.5078 19.6406C20.5859 19.6406 20.638 19.6536 20.6641 19.6797ZM19.2188 17.9609C19.2448 17.9089 19.3099 17.8568 19.4141 17.8047C19.5182 17.7526 19.5964 17.7266 19.6484 17.7266V18.7422C19.5182 18.7161 19.401 18.651 19.2969 18.5469C19.1927 18.4427 19.1406 18.3385 19.1406 18.2344C19.1406 18.1562 19.1667 18.0651 19.2188 17.9609ZM10 26.75V25.5H30V26.75H10Z" fill="#B31F31"/>
</svg>
