<svg width="39" height="39" viewBox="0 0 39 39" fill="none" xmlns="http://www.w3.org/2000/svg">
<path d="M37.5 19.5C37.5 29.4411 29.4411 37.5 19.5 37.5C9.55888 37.5 1.5 29.4411 1.5 19.5C1.5 9.55888 9.55888 1.5 19.5 1.5C29.4411 1.5 37.5 9.55888 37.5 19.5Z" fill="white" stroke="#9FAAB7" stroke-width="3"/>
<path d="M27.6562 14.25C27.9688 14.25 28.2292 14.3542 28.4375 14.5625C28.6458 14.7708 28.75 15.0312 28.75 15.3438V25.6562C28.75 25.9688 28.6458 26.2292 28.4375 26.4375C28.2292 26.6458 27.9688 26.75 27.6562 26.75H12.3438C12.0312 26.75 11.7708 26.6458 11.5625 26.4375C11.3542 26.2292 11.25 25.9688 11.25 25.6562V15.3438C11.25 15.0312 11.3542 14.7708 11.5625 14.5625C11.7708 14.3542 12.0312 14.25 12.3438 14.25H27.6562ZM13.0078 15.5C12.7214 15.5 12.5521 15.6562 12.5 15.9688V16.75H27.5V15.9688C27.4479 15.6562 27.2786 15.5 26.9922 15.5H13.0078ZM26.9922 25.5C27.2786 25.5 27.4479 25.3438 27.5 25.0312V20.5H12.5V25.0312C12.5521 25.3438 12.7214 25.5 13.0078 25.5H26.9922ZM13.75 23V22.375H21.25V23H13.75ZM13.75 24.25V23.625H17.5V24.25H13.75ZM23.75 24.25V22.375H26.25V24.25H23.75Z" fill="#9FAAB7"/>
</svg>
