<svg width="176" height="99" viewBox="0 0 176 99" fill="none" xmlns="http://www.w3.org/2000/svg">
<path d="M119.417 19.0809C118.872 18.9921 118.314 19.0251 117.783 19.1775C117.252 19.3299 116.759 19.5982 116.339 19.9638C115.919 20.3294 115.582 20.7837 115.351 21.2952C115.12 21.8067 115 22.3634 115 22.9267C115 23.4901 115.12 24.0467 115.351 24.5583C115.582 25.0698 115.919 25.524 116.339 25.8896C116.759 26.2553 117.252 26.5235 117.783 26.676C118.314 26.8284 118.872 26.8613 119.417 26.7725C120.313 26.6265 121.129 26.1591 121.718 25.4542C122.307 24.7494 122.631 23.8532 122.631 22.9267C122.631 22.0002 122.307 21.1041 121.718 20.3992C121.129 19.6944 120.313 19.2269 119.417 19.0809Z" fill="#1077BE"/>
<path d="M99.4169 0.746924C98.8719 0.658129 98.3145 0.691082 97.7831 0.843511C97.2518 0.99594 96.7592 1.26421 96.3393 1.62982C95.9194 1.99544 95.5822 2.44968 95.351 2.96121C95.1197 3.47275 95 4.02939 95 4.59274C95 5.15609 95.1197 5.71274 95.351 6.22427C95.5822 6.73581 95.9194 7.19005 96.3393 7.55566C96.7592 7.92127 97.2518 8.18955 97.7831 8.34197C98.3145 8.4944 98.8719 8.52736 99.4169 8.43856C100.313 8.29253 101.129 7.82511 101.718 7.12024C102.307 6.41537 102.631 5.51923 102.631 4.59274C102.631 3.66625 102.307 2.77011 101.718 2.06524C101.129 1.36037 100.313 0.892956 99.4169 0.746924Z" fill="#3DB76C"/>
<path d="M10.4169 15.0067C9.87189 14.9179 9.31448 14.9508 8.78314 15.1033C8.2518 15.2557 7.75918 15.524 7.33928 15.8896C6.91937 16.2552 6.58218 16.7094 6.35096 17.221C6.11974 17.7325 6 18.2892 6 18.8525C6 19.4159 6.11974 19.9725 6.35096 20.484C6.58218 20.9956 6.91937 21.4498 7.33928 21.8154C7.75918 22.181 8.2518 22.4493 8.78314 22.6017C9.31448 22.7542 9.87189 22.7871 10.4169 22.6983C11.3133 22.5523 12.1293 22.0849 12.7184 21.38C13.3074 20.6751 13.631 19.779 13.631 18.8525C13.631 17.926 13.3074 17.0299 12.7184 16.325C12.1293 15.6201 11.3133 15.1527 10.4169 15.0067Z" fill="#1077BE"/>
<path d="M156.291 54.6816C155.431 54.6816 154.606 55.0304 153.998 55.6512C153.389 56.272 153.048 57.114 153.048 57.992C152.967 58.4675 152.989 58.9553 153.112 59.4212C153.236 59.887 153.457 60.3198 153.762 60.689C154.066 61.0583 154.446 61.3551 154.875 61.5588C155.303 61.7624 155.77 61.868 156.243 61.868C156.716 61.868 157.183 61.7624 157.612 61.5588C158.04 61.3551 158.42 61.0583 158.725 60.689C159.029 60.3198 159.251 59.887 159.374 59.4212C159.497 58.9553 159.52 58.4675 159.439 57.992C159.439 57.1306 159.111 56.3031 158.523 55.685C157.935 55.0669 157.134 54.707 156.291 54.6816Z" fill="#3DB76C"/>
<path d="M35.2909 30.2363C34.4307 30.2363 33.6058 30.5851 32.9976 31.2059C32.3894 31.8267 32.0477 32.6687 32.0477 33.5467C31.9669 34.0222 31.989 34.51 32.1123 34.9758C32.2356 35.4417 32.4573 35.8745 32.7617 36.2437C33.0661 36.613 33.446 36.9098 33.8746 37.1135C34.3033 37.3171 34.7704 37.4226 35.2432 37.4226C35.716 37.4226 36.1831 37.3171 36.6117 37.1135C37.0404 36.9098 37.4203 36.613 37.7247 36.2437C38.0291 35.8745 38.2508 35.4417 38.3741 34.9758C38.4974 34.51 38.5195 34.0222 38.4387 33.5467C38.4391 32.6853 38.1105 31.8578 37.5227 31.2397C36.935 30.6216 36.1344 30.2617 35.2909 30.2363Z" fill="#3DB76C"/>
<path d="M154.725 34.4733L155.965 33.2076C156.142 32.9699 156.239 32.6791 156.239 32.38C156.239 32.0809 156.142 31.7901 155.965 31.5524C155.732 31.3708 155.447 31.2724 155.154 31.2724C154.861 31.2724 154.576 31.3708 154.343 31.5524L153.103 32.9155L151.863 31.5524C151.653 31.3608 151.381 31.2549 151.1 31.2549C150.818 31.2549 150.547 31.3608 150.337 31.5524C150.23 31.6609 150.145 31.7899 150.088 31.9319C150.03 32.074 150 32.2262 150 32.38C150 32.5338 150.03 32.686 150.088 32.828C150.145 32.97 150.23 33.099 150.337 33.2076L151.577 34.4733L150.337 35.739C150.23 35.8475 150.145 35.9765 150.088 36.1185C150.03 36.2606 150 36.4128 150 36.5666C150 36.7204 150.03 36.8726 150.088 37.0146C150.145 37.1566 150.23 37.2856 150.337 37.3942C150.547 37.5858 150.818 37.6917 151.1 37.6917C151.381 37.6917 151.653 37.5858 151.863 37.3942L153.103 36.1284L154.343 37.3942C154.576 37.5758 154.861 37.6742 155.154 37.6742C155.447 37.6742 155.732 37.5758 155.965 37.3942C156.142 37.1565 156.239 36.8657 156.239 36.5666C156.239 36.2675 156.142 35.9767 155.965 35.739L154.725 34.4733Z" fill="#3DB76C"/>
<path d="M4.72453 37.5289L5.96458 36.2632C6.1425 36.0256 6.23889 35.7347 6.23889 35.4356C6.23889 35.1365 6.1425 34.8457 5.96458 34.6081C5.73173 34.4265 5.44682 34.3281 5.15378 34.3281C4.86074 34.3281 4.57583 34.4265 4.34298 34.6081L3.10293 35.9711L1.86289 34.6081C1.65302 34.4165 1.38134 34.3105 1.09978 34.3105C0.818216 34.3105 0.54653 34.4165 0.336667 34.6081C0.229954 34.7166 0.145286 34.8456 0.0875126 34.9876C0.0297392 35.1296 0 35.2819 0 35.4356C0 35.5894 0.0297392 35.7417 0.0875126 35.8837C0.145286 36.0257 0.229954 36.1547 0.336667 36.2632L1.57672 37.5289L0.336667 38.7946C0.229954 38.9032 0.145286 39.0322 0.0875126 39.1742C0.0297392 39.3162 0 39.4685 0 39.6222C0 39.776 0.0297392 39.9283 0.0875126 40.0703C0.145286 40.2123 0.229954 40.3413 0.336667 40.4498C0.54653 40.6414 0.818216 40.7473 1.09978 40.7473C1.38134 40.7473 1.65302 40.6414 1.86289 40.4498L3.10293 39.1841L4.34298 40.4498C4.57583 40.6314 4.86074 40.7298 5.15378 40.7298C5.44682 40.7298 5.73173 40.6314 5.96458 40.4498C6.1425 40.2121 6.23889 39.9213 6.23889 39.6222C6.23889 39.3231 6.1425 39.0323 5.96458 38.7946L4.72453 37.5289Z" fill="#3DB76C"/>
<path d="M69.7747 18.2225L71.0148 16.8594C71.2025 16.6452 71.3063 16.3679 71.3063 16.0805C71.3063 15.7932 71.2025 15.5159 71.0148 15.3016C70.9085 15.1927 70.7821 15.1063 70.643 15.0473C70.5038 14.9884 70.3546 14.958 70.204 14.958C70.0533 14.958 69.9042 14.9884 69.765 15.0473C69.6259 15.1063 69.4995 15.1927 69.3932 15.3016L68.1531 16.5674L66.9131 15.3016C66.8067 15.1927 66.6804 15.1063 66.5412 15.0473C66.4021 14.9884 66.2529 14.958 66.1023 14.958C65.9516 14.958 65.8025 14.9884 65.6633 15.0473C65.5242 15.1063 65.3978 15.1927 65.2915 15.3016C65.1038 15.5159 65 15.7932 65 16.0805C65 16.3679 65.1038 16.6452 65.2915 16.8594L66.6269 18.2225L65.2915 19.4882C65.1038 19.7024 65 19.9798 65 20.2671C65 20.5545 65.1038 20.8318 65.2915 21.046C65.3978 21.155 65.5242 21.2414 65.6633 21.3004C65.8025 21.3593 65.9516 21.3897 66.1023 21.3897C66.2529 21.3897 66.4021 21.3593 66.5412 21.3004C66.6804 21.2414 66.8067 21.155 66.9131 21.046L68.1531 19.7803L69.3932 21.046C69.4995 21.155 69.6259 21.2414 69.765 21.3004C69.9042 21.3593 70.0533 21.3897 70.204 21.3897C70.3546 21.3897 70.5038 21.3593 70.643 21.3004C70.7821 21.2414 70.9085 21.155 71.0148 21.046C71.2025 20.8318 71.3063 20.5545 71.3063 20.2671C71.3063 19.9798 71.2025 19.7024 71.0148 19.4882L69.7747 18.2225Z" fill="#1077BE"/>
<path d="M174.102 11.6702L175.151 10.5992C175.26 10.5155 175.351 10.4088 175.416 10.2863C175.482 10.1639 175.52 10.0285 175.53 9.88933C175.54 9.75018 175.52 9.61054 175.472 9.47986C175.424 9.34917 175.35 9.23048 175.253 9.13185C175.156 9.03321 175.04 8.95692 174.912 8.90815C174.784 8.85937 174.647 8.83924 174.511 8.84913C174.375 8.85902 174.242 8.89869 174.122 8.96546C174.002 9.03223 173.897 9.12454 173.815 9.23613L172.766 10.3071L171.717 9.23613C171.533 9.09551 171.306 9.02724 171.077 9.04386C170.848 9.06047 170.633 9.16085 170.47 9.32658C170.308 9.4923 170.209 9.71223 170.193 9.94601C170.177 10.1798 170.244 10.4117 170.382 10.5992L171.431 11.6702L170.382 12.7412C170.272 12.8249 170.182 12.9316 170.116 13.0541C170.051 13.1765 170.012 13.3119 170.002 13.4511C169.993 13.5902 170.012 13.7299 170.06 13.8605C170.108 13.9912 170.183 14.1099 170.279 14.2085C170.376 14.3072 170.492 14.3835 170.62 14.4323C170.748 14.481 170.885 14.5012 171.021 14.4913C171.158 14.4814 171.29 14.4417 171.41 14.3749C171.53 14.3082 171.635 14.2159 171.717 14.1043L172.766 13.0333L173.815 14.1043C173.897 14.2159 174.002 14.3082 174.122 14.3749C174.242 14.4417 174.375 14.4814 174.511 14.4913C174.647 14.5012 174.784 14.481 174.912 14.4323C175.04 14.3835 175.156 14.3072 175.253 14.2085C175.35 14.1099 175.424 13.9912 175.472 13.8605C175.52 13.7299 175.54 13.5902 175.53 13.4511C175.52 13.3119 175.482 13.1765 175.416 13.0541C175.351 12.9316 175.26 12.8249 175.151 12.7412L174.102 11.6702Z" fill="#1077BE"/>
<path d="M24.1017 76.8577L25.151 75.7867C25.2603 75.703 25.3507 75.5963 25.4162 75.4738C25.4816 75.3514 25.5204 75.216 25.5301 75.0768C25.5398 74.9377 25.5201 74.798 25.4723 74.6674C25.4245 74.5367 25.3498 74.418 25.2531 74.3193C25.1565 74.2207 25.0402 74.1444 24.9122 74.0956C24.7842 74.0469 24.6473 74.0267 24.511 74.0366C24.3747 74.0465 24.2421 74.0862 24.1221 74.153C24.0021 74.2197 23.8975 74.312 23.8155 74.4236L22.7663 75.4946L21.717 74.4236C21.5333 74.283 21.3061 74.2147 21.077 74.2314C20.848 74.248 20.6325 74.3484 20.4702 74.5141C20.3078 74.6798 20.2095 74.8997 20.1932 75.1335C20.1769 75.3673 20.2438 75.5992 20.3816 75.7867L21.4308 76.8577L20.3816 77.9287C20.2722 78.0124 20.1818 78.1191 20.1164 78.2416C20.051 78.364 20.0121 78.4994 20.0024 78.6386C19.9927 78.7777 20.0124 78.9174 20.0602 79.048C20.108 79.1787 20.1827 79.2974 20.2794 79.396C20.376 79.4947 20.4923 79.571 20.6203 79.6198C20.7484 79.6685 20.8852 79.6887 21.0215 79.6788C21.1578 79.6689 21.2905 79.6292 21.4105 79.5624C21.5305 79.4957 21.635 79.4034 21.717 79.2918L22.7663 78.2208L23.8155 79.2918C23.8975 79.4034 24.0021 79.4957 24.1221 79.5624C24.2421 79.6292 24.3747 79.6689 24.511 79.6788C24.6473 79.6887 24.7842 79.6685 24.9122 79.6198C25.0402 79.571 25.1565 79.4947 25.2531 79.396C25.3498 79.2974 25.4245 79.1787 25.4723 79.048C25.5201 78.9174 25.5398 78.7777 25.5301 78.6386C25.5204 78.4994 25.4816 78.364 25.4162 78.2416C25.3507 78.1191 25.2603 78.0124 25.151 77.9287L24.1017 76.8577Z" fill="#1077BE"/>
<circle cx="86" cy="54" r="45" fill="#3DB76C"/>
<path fill-rule="evenodd" clip-rule="evenodd" d="M97 27.75H74.5C73.5054 27.75 72.5516 28.1451 71.8484 28.8483C71.1451 29.5516 70.75 30.5054 70.75 31.5V76.5C70.75 77.4946 71.1451 78.4484 71.8484 79.1516C72.5516 79.8549 73.5054 80.25 74.5 80.25H97C97.9946 80.25 98.9484 79.8549 99.6516 79.1516C100.355 78.4484 100.75 77.4946 100.75 76.5V31.5C100.75 30.5054 100.355 29.5516 99.6516 28.8483C98.9484 28.1451 97.9946 27.75 97 27.75ZM74.5 24C72.5109 24 70.6032 24.7902 69.1967 26.1967C67.7902 27.6032 67 29.5109 67 31.5V76.5C67 78.4891 67.7902 80.3968 69.1967 81.8033C70.6032 83.2098 72.5109 84 74.5 84H97C98.9891 84 100.897 83.2098 102.303 81.8033C103.71 80.3968 104.5 78.4891 104.5 76.5V31.5C104.5 29.5109 103.71 27.6032 102.303 26.1967C100.897 24.7902 98.9891 24 97 24H74.5Z" fill="white"/>
<path d="M80.8171 58.6598L74.6487 52.4416L72 55.1117L80.8171 64L99 45.6701L96.3513 43L80.8171 58.6598Z" fill="white"/>
</svg>
