<svg width="39" height="39" viewBox="0 0 39 39" fill="none" xmlns="http://www.w3.org/2000/svg">
<path d="M37.5 19.5C37.5 29.4411 29.4411 37.5 19.5 37.5C9.55888 37.5 1.5 29.4411 1.5 19.5C1.5 9.55888 9.55888 1.5 19.5 1.5C29.4411 1.5 37.5 9.55888 37.5 19.5Z" fill="white" stroke="#9FAAB7" stroke-width="3"/>
<path d="M28 28H20.5H13C13 27.3229 13.026 26.8021 13.0781 26.4375C13.1823 25.9167 14.237 25.2786 16.2422 24.5234C16.5547 24.4193 16.9323 24.2891 17.375 24.1328C17.974 23.9245 18.3255 23.7682 18.4297 23.6641C18.5339 23.5339 18.5859 23.1823 18.5859 22.6094C18.5859 22.5052 18.5859 22.4271 18.5859 22.375C18.5859 22.0625 18.4688 21.763 18.2344 21.4766C18 21.1641 17.8177 20.6302 17.6875 19.875C17.6354 19.6146 17.5573 19.4062 17.4531 19.25C17.349 19.0938 17.2448 18.7812 17.1406 18.3125C17.0625 18.0781 17.0495 17.8568 17.1016 17.6484C17.1797 17.4401 17.2188 17.3099 17.2188 17.2578C17.1667 16.8411 17.1146 16.4115 17.0625 15.9688C17.0104 15.3698 17.2708 14.7318 17.8438 14.0547C18.4167 13.3516 19.3021 13 20.5 13C21.6979 13 22.5833 13.3516 23.1562 14.0547C23.7292 14.7318 23.9896 15.3698 23.9375 15.9688C23.8854 16.4115 23.8333 16.8411 23.7812 17.2578C23.7812 17.3099 23.8073 17.4401 23.8594 17.6484C23.9375 17.8568 23.9375 18.0781 23.8594 18.3125C23.7552 18.7812 23.651 19.0938 23.5469 19.25C23.4427 19.4062 23.3646 19.6146 23.3125 19.875C23.1823 20.6302 23 21.1641 22.7656 21.4766C22.5312 21.763 22.4141 22.0625 22.4141 22.375C22.4141 23.1562 22.4922 23.599 22.6484 23.7031C22.7005 23.7552 23.3385 24.0026 24.5625 24.4453C24.6146 24.4714 24.6797 24.4974 24.7578 24.5234C26.763 25.2786 27.8177 25.9167 27.9219 26.4375L28 28Z" fill="#9FAAB7"/>
</svg>
