<svg width="39" height="39" viewBox="0 0 39 39" fill="none" xmlns="http://www.w3.org/2000/svg">
<path d="M37.5 19.5C37.5 29.4411 29.4411 37.5 19.5 37.5C9.55888 37.5 1.5 29.4411 1.5 19.5C1.5 9.55888 9.55888 1.5 19.5 1.5C29.4411 1.5 37.5 9.55888 37.5 19.5Z" fill="white" stroke="#0E3C65" stroke-width="3"/>
<path d="M26.3672 13.0391C26.7839 12.9609 27.1615 13.0521 27.5 13.3125C27.8385 13.5729 28.0469 13.9245 28.125 14.3672C28.2031 14.7839 28.112 15.1745 27.8516 15.5391L19.7656 27.3359C19.5052 27.6745 19.1667 27.8828 18.75 27.9609C18.3594 28.0391 17.9948 27.9479 17.6562 27.6875C17.4479 27.5312 16.901 26.9844 16.0156 26.0469C15.1302 25.0833 14.2969 24.1589 13.5156 23.2734L12.3047 21.9453C12.0182 21.6328 11.875 21.2552 11.875 20.8125C11.875 20.3698 12.0312 19.9922 12.3438 19.6797C12.6562 19.3672 13.0208 19.224 13.4375 19.25C13.8542 19.25 14.2057 19.4193 14.4922 19.7578L18.3594 23.9375L25.3906 13.6641C25.651 13.3255 25.9766 13.1172 26.3672 13.0391Z" fill="#0E3C65"/>
</svg>
