<svg width="25" height="25" viewBox="0 0 25 25" fill="none" xmlns="http://www.w3.org/2000/svg">
<path fill-rule="evenodd" clip-rule="evenodd" d="M17.045 9.09038C17.045 10.2959 16.5661 11.4521 15.7137 12.3045C14.8612 13.1569 13.7051 13.6358 12.4996 13.6358C11.294 13.6358 10.1379 13.1569 9.28543 12.3045C8.433 11.4521 7.9541 10.2959 7.9541 9.09038C7.9541 7.88485 8.433 6.72869 9.28543 5.87625C10.1379 5.02382 11.294 4.54492 12.4996 4.54492C13.7051 4.54492 14.8612 5.02382 15.7137 5.87625C16.5661 6.72869 17.045 7.88485 17.045 9.09038ZM14.7723 9.09038C14.7723 9.69314 14.5328 10.2712 14.1066 10.6974C13.6804 11.1237 13.1023 11.3631 12.4996 11.3631C11.8968 11.3631 11.3187 11.1237 10.8925 10.6974C10.4663 10.2712 10.2268 9.69314 10.2268 9.09038C10.2268 8.48761 10.4663 7.90953 10.8925 7.48332C11.3187 7.0571 11.8968 6.81765 12.4996 6.81765C13.1023 6.81765 13.6804 7.0571 14.1066 7.48332C14.5328 7.90953 14.7723 8.48761 14.7723 9.09038Z" fill="#333333"/>
<path fill-rule="evenodd" clip-rule="evenodd" d="M12.5 0C5.59659 0 0 5.59659 0 12.5C0 19.4034 5.59659 25 12.5 25C19.4034 25 25 19.4034 25 12.5C25 5.59659 19.4034 0 12.5 0ZM2.27273 12.5C2.27273 14.875 3.08295 17.0614 4.44091 18.7977C5.39458 17.5453 6.62489 16.5304 8.03572 15.8322C9.44655 15.134 10.9997 14.7714 12.5739 14.7727C14.1276 14.7713 15.6613 15.1245 17.0579 15.8054C18.4545 16.4864 19.6772 17.4772 20.633 18.7023C21.6176 17.4109 22.2805 15.9037 22.5669 14.3052C22.8534 12.7068 22.755 11.0631 22.2801 9.51021C21.8052 7.95731 20.9673 6.53983 19.8358 5.37504C18.7043 4.21026 17.3116 3.33166 15.7732 2.81194C14.2347 2.29222 12.5945 2.14633 10.9885 2.38633C9.38241 2.62633 7.85658 3.24533 6.53724 4.19211C5.21789 5.13888 4.14297 6.38622 3.4014 7.8309C2.65983 9.27559 2.27293 10.8761 2.27273 12.5ZM12.5 22.7273C10.1522 22.7308 7.8753 21.9231 6.05455 20.4409C6.78742 19.3917 7.76288 18.5351 8.89795 17.944C10.033 17.3528 11.2941 17.0445 12.5739 17.0455C13.8377 17.0444 15.0835 17.345 16.2079 17.9221C17.3322 18.4992 18.3027 19.3362 19.0386 20.3636C17.2037 21.894 14.8893 22.7306 12.5 22.7273Z" fill="#333333"/>
</svg>
