<svg width="18" height="19" viewBox="0 0 18 19" fill="none" xmlns="http://www.w3.org/2000/svg">
<path d="M2.53906 3.32812C4.25781 1.60938 6.32812 0.75 8.75 0.75C11.1719 0.75 13.2292 1.60938 14.9219 3.32812C16.6406 5.02083 17.5 7.07812 17.5 9.5C17.5 11.9219 16.6406 13.9922 14.9219 15.7109C13.2292 17.4036 11.1719 18.25 8.75 18.25C6.32812 18.25 4.25781 17.4036 2.53906 15.7109C0.846354 13.9922 0 11.9219 0 9.5C0 7.07812 0.846354 5.02083 2.53906 3.32812ZM13.2422 6.57031C13.2682 6.54427 13.2812 6.50521 13.2812 6.45312C13.2812 6.375 13.2682 6.32292 13.2422 6.29688L12.0312 5.35938C12.0052 5.33333 11.9531 5.32031 11.875 5.32031C11.8229 5.32031 11.7839 5.33333 11.7578 5.35938L7.42188 10.9453C6.27604 9.85156 5.6901 9.29167 5.66406 9.26562C5.58594 9.1875 5.50781 9.14844 5.42969 9.14844C5.40365 9.14844 5.35156 9.1875 5.27344 9.26562L4.29688 10.2422L4.25781 10.2812C4.23177 10.3073 4.21875 10.3594 4.21875 10.4375C4.21875 10.4896 4.23177 10.5286 4.25781 10.5547L4.33594 10.5938C6.36719 12.5469 7.39583 13.5365 7.42188 13.5625C7.5 13.6406 7.5651 13.6797 7.61719 13.6797C7.66927 13.6797 7.73438 13.6406 7.8125 13.5625L13.2422 6.57031Z" fill="#13CE66"/>
</svg>
