<svg width="39" height="39" viewBox="0 0 39 39" fill="none" xmlns="http://www.w3.org/2000/svg">
<path d="M37.5 19.5C37.5 29.4411 29.4411 37.5 19.5 37.5C9.55888 37.5 1.5 29.4411 1.5 19.5C1.5 9.55888 9.55888 1.5 19.5 1.5C29.4411 1.5 37.5 9.55888 37.5 19.5Z" fill="white" stroke="#3DB76C" stroke-width="3"/>
<path d="M19.4717 21.5519V23.5315C18.6144 23.2284 17.697 23.1354 16.7963 23.2604C15.8957 23.3853 15.0382 23.7246 14.2958 24.2496C13.5535 24.7747 12.9479 25.4701 12.53 26.2777C12.1122 27.0853 11.8942 27.9813 11.8943 28.8906L10 28.8896C9.99971 27.733 10.2642 26.5917 10.7732 25.5531C11.2822 24.5145 12.0221 23.6062 12.9364 22.8978C13.8507 22.1895 14.915 21.6998 16.0478 21.4663C17.1806 21.2328 18.3518 21.2618 19.4717 21.5509V21.5519ZM17.5774 20.366C14.4375 20.366 11.8943 17.8229 11.8943 14.683C11.8943 11.5431 14.4375 9 17.5774 9C20.7172 9 23.2604 11.5431 23.2604 14.683C23.2604 17.8229 20.7172 20.366 17.5774 20.366ZM17.5774 18.4717C19.6706 18.4717 21.366 16.7763 21.366 14.683C21.366 12.5898 19.6706 10.8943 17.5774 10.8943C15.4841 10.8943 13.7887 12.5898 13.7887 14.683C13.7887 16.7763 15.4841 18.4717 17.5774 18.4717ZM24.6035 24.1547H28V26.049H24.6035L26.3358 27.7805L24.9965 29.1207L20.9777 25.1019L24.9965 21.083L26.3358 22.4233L24.6035 24.1547Z" fill="#3DB76C"/>
</svg>