<svg width="39" height="39" viewBox="0 0 39 39" fill="none" xmlns="http://www.w3.org/2000/svg">
<path d="M37.5 19.5C37.5 29.4411 29.4411 37.5 19.5 37.5C9.55888 37.5 1.5 29.4411 1.5 19.5C1.5 9.55888 9.55888 1.5 19.5 1.5C29.4411 1.5 37.5 9.55888 37.5 19.5Z" fill="white" stroke="#1077BE" stroke-width="3"/>
<path d="M22.5534 11.0001C22.415 11.0056 22.2813 11.0305 22.1422 11.0652L12.731 13.3581C11.6177 13.6308 10.9213 14.7538 11.1947 15.8677L12.5143 21.2552C12.5942 21.5761 12.7499 21.8732 12.9683 22.1216C13.1867 22.37 13.4614 22.5624 13.7694 22.6828V21.3847C13.7694 19.476 15.3223 17.9232 17.231 17.9232H25.9499L24.6518 12.5792C24.537 12.1147 24.2655 11.704 23.8831 11.4163C23.5008 11.1287 23.0309 10.9816 22.5527 11.0001H22.5534ZM23.3967 13.986L23.9595 16.344L21.623 16.9062L21.0387 14.5696L23.3967 13.986ZM17.231 19.3078C16.0845 19.3078 15.154 20.2382 15.154 21.3847V26.9232C15.154 28.0696 16.0845 29.0001 17.231 29.0001H26.9233C28.0697 29.0001 29.0002 28.0696 29.0002 26.9232V21.3847C29.0002 20.2382 28.0697 19.3078 26.9233 19.3078H17.231ZM17.231 20.4113H26.9233C27.457 20.4113 27.8967 20.8509 27.8967 21.3847V22.077H16.2576V21.3847C16.2576 20.8509 16.6972 20.4113 17.231 20.4113ZM16.2576 24.1539H27.8967V26.9232C27.8967 27.4569 27.457 27.8965 26.9233 27.8965H17.231C16.9733 27.8951 16.7265 27.7921 16.5443 27.6098C16.362 27.4276 16.259 27.1809 16.2576 26.9232V24.1539Z" fill="#1077BE"/>
</svg>
