<svg width="39" height="39" viewBox="0 0 39 39" fill="none" xmlns="http://www.w3.org/2000/svg">
<path d="M37.5 19.5C37.5 29.4411 29.4411 37.5 19.5 37.5C9.55888 37.5 1.5 29.4411 1.5 19.5C1.5 9.55888 9.55888 1.5 19.5 1.5C29.4411 1.5 37.5 9.55888 37.5 19.5Z" fill="white" stroke="#828282" stroke-width="3"/>
<path d="M22.5529 11.0001C22.4145 11.0056 22.2809 11.0305 22.1417 11.0652L12.7305 13.3581C11.6172 13.6308 10.9208 14.7538 11.1942 15.8677L12.5138 21.2552C12.5937 21.5761 12.7494 21.8732 12.9678 22.1216C13.1862 22.37 13.4609 22.5624 13.7689 22.6828V21.3847C13.7689 19.476 15.3218 17.9232 17.2305 17.9232H25.9494L24.6513 12.5792C24.5365 12.1147 24.265 11.704 23.8826 11.4163C23.5003 11.1287 23.0304 10.9816 22.5522 11.0001H22.5529ZM23.3962 13.986L23.959 16.344L21.6225 16.9062L21.0382 14.5696L23.3962 13.986ZM17.2305 19.3078C16.084 19.3078 15.1535 20.2382 15.1535 21.3847V26.9232C15.1535 28.0696 16.084 29.0001 17.2305 29.0001H26.9228C28.0692 29.0001 28.9997 28.0696 28.9997 26.9232V21.3847C28.9997 20.2382 28.0692 19.3078 26.9228 19.3078H17.2305ZM17.2305 20.4113H26.9228C27.4565 20.4113 27.8962 20.8509 27.8962 21.3847V22.077H16.2571V21.3847C16.2571 20.8509 16.6967 20.4113 17.2305 20.4113ZM16.2571 24.1539H27.8962V26.9232C27.8962 27.4569 27.4565 27.8965 26.9228 27.8965H17.2305C16.9728 27.8951 16.726 27.7921 16.5438 27.6098C16.3616 27.4276 16.2585 27.1809 16.2571 26.9232V24.1539Z" fill="#828282"/>
</svg>
