<svg width="39" height="39" viewBox="0 0 39 39" fill="none" xmlns="http://www.w3.org/2000/svg">
<path d="M36.5651 19.5C36.5651 29.4756 28.6814 37.5 19.0325 37.5C9.38369 37.5 1.5 29.4756 1.5 19.5C1.5 9.52436 9.38369 1.5 19.0325 1.5C28.6814 1.5 36.5651 9.52436 36.5651 19.5Z" fill="white" stroke="#1077BE" stroke-width="3"/>
<path d="M22.981 21.5909H23.481V21.0909V13.8182V13.3182H22.981H10.5588H10.0588V13.8182V21.0909V21.5909H10.5588H22.981ZM27.0302 24.7273V15.2273H27.8048V24.7273C27.8048 25.4626 27.2187 26.0455 26.5302 26.0455H11.9461V25.2273H26.5302H27.0302V24.7273ZM24.2556 13.8182V21.0909C24.2556 21.8263 23.6695 22.4091 22.981 22.4091H10.5588C9.87032 22.4091 9.28424 21.8263 9.28424 21.0909V13.8182C9.28424 13.0828 9.87032 12.5 10.5588 12.5H22.981C23.6695 12.5 24.2556 13.0828 24.2556 13.8182ZM14.608 17.4545C14.608 16.2101 15.5845 15.2273 16.7699 15.2273C17.9553 15.2273 18.9318 16.2101 18.9318 17.4545C18.9318 18.699 17.9553 19.6818 16.7699 19.6818C15.5845 19.6818 14.608 18.699 14.608 17.4545Z" fill="#1077BE" stroke="#1077BE"/>
</svg>
