<svg width="39" height="39" viewBox="0 0 39 39" fill="none" xmlns="http://www.w3.org/2000/svg">
<path d="M37.5 19.5C37.5 29.4411 29.4411 37.5 19.5 37.5C9.55888 37.5 1.5 29.4411 1.5 19.5C1.5 9.55888 9.55888 1.5 19.5 1.5C29.4411 1.5 37.5 9.55888 37.5 19.5Z" fill="white" stroke="#3DB76C" stroke-width="3"/>
<path d="M25.5469 17.1016C25.599 17.2578 25.625 17.388 25.625 17.4922V27.0625C25.625 27.3229 25.5339 27.5443 25.3516 27.7266C25.1953 27.9089 25 28 24.7656 28H15.2734C15.0391 28 14.8307 27.9089 14.6484 27.7266C14.4661 27.5443 14.375 27.3229 14.375 27.0625V13.9375C14.375 13.6771 14.4661 13.4557 14.6484 13.2734C14.8307 13.0911 15.0391 13 15.2734 13H21.5234C21.6797 13 21.7969 13.026 21.875 13.0781C21.9792 13.1302 22.0703 13.1953 22.1484 13.2734L25.4297 16.8672L25.5469 17.1016ZM16.25 17.4922V17.8828C16.25 17.9609 16.2891 18 16.3672 18H19.1406C19.2188 18 19.2578 17.9609 19.2578 17.8828V17.4922C19.2578 17.4141 19.2188 17.375 19.1406 17.375H16.3672C16.2891 17.375 16.25 17.4141 16.25 17.4922ZM16.25 22.4922V22.8828C16.25 22.9609 16.2891 23 16.3672 23H21.1719C21.224 23 21.25 22.9609 21.25 22.8828V22.4922C21.25 22.4141 21.224 22.375 21.1719 22.375H16.3672C16.2891 22.375 16.25 22.4141 16.25 22.4922ZM22.5 25.3828V24.9922C22.5 24.9141 22.474 24.875 22.4219 24.875H16.3672C16.2891 24.875 16.25 24.9141 16.25 24.9922V25.3828C16.25 25.4609 16.2891 25.5 16.3672 25.5H22.4219C22.474 25.5 22.5 25.4609 22.5 25.3828ZM23.75 20.3828V19.9922C23.75 19.9141 23.724 19.875 23.6719 19.875H16.3672C16.2891 19.875 16.25 19.9141 16.25 19.9922V20.3828C16.25 20.4609 16.2891 20.5 16.3672 20.5H23.6719C23.724 20.5 23.75 20.4609 23.75 20.3828ZM21.9141 17.4531H24.2578L21.4844 14.4062V16.9844C21.4844 17.2969 21.6276 17.4531 21.9141 17.4531Z" fill="#3DB76C"/>
</svg>
