

<svg width="39" height="39" viewBox="0 0 39 39" fill="none" xmlns="http://www.w3.org/2000/svg">
<path d="M37.5 19.5C37.5 29.4411 29.4411 37.5 19.5 37.5C9.55888 37.5 1.5 29.4411 1.5 19.5C1.5 9.55888 9.55888 1.5 19.5 1.5C29.4411 1.5 37.5 9.55888 37.5 19.5Z" fill="white" stroke="#3DB76C" stroke-width="3"/>
<path d="M20.7752 21.9541V23.9971C19.8904 23.6843 18.9436 23.5883 18.0141 23.7173C17.0846 23.8463 16.1996 24.1964 15.4335 24.7382C14.6673 25.2801 14.0424 25.9979 13.6111 26.8313C13.1798 27.6647 12.9549 28.5895 12.955 29.5279L11 29.5269C10.9997 28.3332 11.2727 27.1553 11.7979 26.0835C12.3232 25.0116 13.0869 24.0742 14.0305 23.3431C14.9741 22.6121 16.0725 22.1067 17.2416 21.8657C18.4107 21.6248 19.6194 21.6547 20.7752 21.9531V21.9541ZM18.8201 20.7302C15.5797 20.7302 12.955 18.1056 12.955 14.8651C12.955 11.6246 15.5797 9 18.8201 9C22.0606 9 24.6852 11.6246 24.6852 14.8651C24.6852 18.1056 22.0606 20.7302 18.8201 20.7302ZM18.8201 18.7752C20.9804 18.7752 22.7302 17.0254 22.7302 14.8651C22.7302 12.7048 20.9804 10.955 18.8201 10.955C16.6598 10.955 14.9101 12.7048 14.9101 14.8651C14.9101 17.0254 16.6598 18.7752 18.8201 18.7752ZM25.2581 24.6403L23.4702 22.8534L24.8534 21.4702L29 25.6178L24.8534 29.7654L23.4702 28.3822L25.2581 26.5953H21.7527V24.6403H25.2581Z" fill="#3DB76C"/>
</svg>

