<svg width="12" height="15" viewBox="0 0 12 15" fill="none" xmlns="http://www.w3.org/2000/svg">
<path d="M9.75 4.5H4.5V3C4.5 2.60218 4.65804 2.22064 4.93934 1.93934C5.22064 1.65804 5.60218 1.5 6 1.5C6.39782 1.5 6.77936 1.65804 7.06066 1.93934C7.34196 2.22064 7.5 2.60218 7.5 3C7.5 3.19891 7.57902 3.38968 7.71967 3.53033C7.86032 3.67098 8.05109 3.75 8.25 3.75C8.44891 3.75 8.63968 3.67098 8.78033 3.53033C8.92098 3.38968 9 3.19891 9 3C9 2.20435 8.68393 1.44129 8.12132 0.87868C7.55871 0.316071 6.79565 0 6 0C5.20435 0 4.44129 0.316071 3.87868 0.87868C3.31607 1.44129 3 2.20435 3 3V4.5H2.25C1.65326 4.5 1.08097 4.73705 0.65901 5.15901C0.237053 5.58097 0 6.15326 0 6.75V12.75C0 13.3467 0.237053 13.919 0.65901 14.341C1.08097 14.7629 1.65326 15 2.25 15H9.75C10.3467 15 10.919 14.7629 11.341 14.341C11.7629 13.919 12 13.3467 12 12.75V6.75C12 6.15326 11.7629 5.58097 11.341 5.15901C10.919 4.73705 10.3467 4.5 9.75 4.5ZM6 12C5.55499 12 5.11998 11.868 4.74997 11.6208C4.37996 11.3736 4.09157 11.0222 3.92127 10.611C3.75097 10.1999 3.70642 9.7475 3.79323 9.31105C3.88005 8.87459 4.09434 8.47368 4.40901 8.15901C4.72368 7.84434 5.12459 7.63005 5.56105 7.54323C5.9975 7.45642 6.4499 7.50097 6.86104 7.67127C7.27217 7.84157 7.62357 8.12996 7.87081 8.49997C8.11804 8.86998 8.25 9.30499 8.25 9.75C8.25 10.3467 8.01295 10.919 7.59099 11.341C7.16903 11.7629 6.59674 12 6 12Z" fill="#A33035"/>
</svg>
