<svg width="62" height="77" viewBox="0 0 62 77" fill="none" xmlns="http://www.w3.org/2000/svg">
<path d="M30.7992 53.8992C32.9255 53.8992 34.6492 52.1755 34.6492 50.0492C34.6492 47.9229 32.9255 46.1992 30.7992 46.1992C28.6729 46.1992 26.9492 47.9229 26.9492 50.0492C26.9492 52.1755 28.6729 53.8992 30.7992 53.8992Z" fill="white"/>
<path d="M50.05 23.1H23.1V15.4C23.1 13.3578 23.9112 11.3993 25.3553 9.95528C26.7993 8.51125 28.7578 7.7 30.8 7.7C32.8422 7.7 34.8007 8.51125 36.2447 9.95528C37.6887 11.3993 38.5 13.3578 38.5 15.4C38.5 16.4211 38.9056 17.4003 39.6276 18.1224C40.3497 18.8444 41.3289 19.25 42.35 19.25C43.3711 19.25 44.3503 18.8444 45.0724 18.1224C45.7944 17.4003 46.2 16.4211 46.2 15.4C46.2 11.3157 44.5775 7.39862 41.6894 4.51056C38.8014 1.6225 34.8843 0 30.8 0C26.7157 0 22.7986 1.6225 19.9106 4.51056C17.0225 7.39862 15.4 11.3157 15.4 15.4V23.1H11.55C8.48675 23.1 5.54896 24.3169 3.38292 26.4829C1.21687 28.649 0 31.5867 0 34.65V65.45C0 68.5132 1.21687 71.451 3.38292 73.6171C5.54896 75.7831 8.48675 77 11.55 77H50.05C53.1132 77 56.051 75.7831 58.2171 73.6171C60.3831 71.451 61.6 68.5132 61.6 65.45V34.65C61.6 31.5867 60.3831 28.649 58.2171 26.4829C56.051 24.3169 53.1132 23.1 50.05 23.1ZM30.8 61.6C28.5156 61.6 26.2826 60.9226 24.3832 59.6535C22.4838 58.3843 21.0034 56.5805 20.1292 54.47C19.255 52.3595 19.0263 50.0372 19.4719 47.7967C19.9176 45.5562 21.0176 43.4982 22.6329 41.8829C24.2482 40.2676 26.3062 39.1676 28.5467 38.7219C30.7872 38.2763 33.1095 38.505 35.22 39.3792C37.3305 40.2534 39.1343 41.7338 40.4035 43.6332C41.6726 45.5325 42.35 47.7656 42.35 50.05C42.35 53.1132 41.1331 56.051 38.9671 58.2171C36.801 60.3831 33.8632 61.6 30.8 61.6Z" fill="white"/>
</svg>
