<svg width="18" height="13" viewBox="0 0 18 13" fill="none" xmlns="http://www.w3.org/2000/svg">
<path d="M10.8 8.1V9.9H13.5V12.6H15.3V9.9H18V8.1H15.3V5.4H13.5V8.1H10.8ZM10.773 5.049C10.665 3.852 9.531 2.673 8.1 2.7C6.57 2.727 5.4 3.87 5.4 5.4C5.4 6.93 6.57 8.046 8.1 8.1C8.442 8.1 8.793 8.028 9.126 7.893C9.369 6.903 9.774 5.967 10.773 5.049ZM9 9H3.6C3.6 8.52261 3.41036 8.06477 3.07279 7.72721C2.73523 7.38964 2.27739 7.2 1.8 7.2V3.6C2.799 3.6 3.6 2.799 3.6 1.8H12.6C12.6 2.27739 12.7896 2.73523 13.1272 3.07279C13.4648 3.41036 13.9226 3.6 14.4 3.6V3.654C15.003 3.654 15.606 3.762 16.2 3.96V0H0V10.8H9.288C9.09676 10.2192 8.99954 9.61151 9 9Z" fill="#333333"/>
</svg>
