<svg width="16" height="16" viewBox="0 0 16 16" fill="none" xmlns="http://www.w3.org/2000/svg">
<path d="M7.9998 12L8.7998 10.4V6.2864C10.1766 5.9288 11.1998 4.6864 11.1998 3.2C11.1998 1.4352 9.76461 0 7.9998 0C6.235 0 4.7998 1.4352 4.7998 3.2C4.7998 4.6864 5.823 5.9288 7.1998 6.2864V10.4L7.9998 12ZM6.3998 3.2C6.3998 2.3176 7.1174 1.6 7.9998 1.6C8.88221 1.6 9.5998 2.3176 9.5998 3.2C9.5998 4.0824 8.88221 4.8 7.9998 4.8C7.1174 4.8 6.3998 4.0824 6.3998 3.2Z" fill="#4F4F4F"/>
<path d="M11.4136 6.85041L10.9872 8.39281C13.06 8.96561 14.4 10.0672 14.4 11.2C14.4 12.7136 11.772 14.4 8 14.4C4.228 14.4 1.6 12.7136 1.6 11.2C1.6 10.0672 2.94 8.96561 5.0136 8.39201L4.5872 6.84961C1.7576 7.63201 0 9.29841 0 11.2C0 13.8912 3.5144 16 8 16C12.4856 16 16 13.8912 16 11.2C16 9.29841 14.2424 7.63201 11.4136 6.85041Z" fill="#4F4F4F"/>
</svg>
