<svg width="25" height="23" viewBox="0 0 25 23" fill="none" xmlns="http://www.w3.org/2000/svg">
<path d="M0 20.625H25V22.9167H0V20.625ZM2.5 11.4583H5V19.4792H2.5V11.4583ZM8.75 11.4583H11.25V19.4792H8.75V11.4583ZM13.75 11.4583H16.25V19.4792H13.75V11.4583ZM20 11.4583H22.5V19.4792H20V11.4583ZM0 5.72917L12.5 0L25 5.72917V10.3125H0V5.72917ZM12.5 6.875C12.8315 6.875 13.1495 6.75428 13.3839 6.53939C13.6183 6.32451 13.75 6.03306 13.75 5.72917C13.75 5.42527 13.6183 5.13383 13.3839 4.91894C13.1495 4.70406 12.8315 4.58333 12.5 4.58333C12.1685 4.58333 11.8505 4.70406 11.6161 4.91894C11.3817 5.13383 11.25 5.42527 11.25 5.72917C11.25 6.03306 11.3817 6.32451 11.6161 6.53939C11.8505 6.75428 12.1685 6.875 12.5 6.875Z" fill="#4F4F4F"/>
</svg>
