<svg width="45" height="45" viewBox="0 0 45 45" fill="none" xmlns="http://www.w3.org/2000/svg">
<circle cx="22.5" cy="22.5" r="22.5" fill="#4F4F4F"/>
<path d="M12 29.5H32V31.3333H12V29.5ZM14 22.1667H16V28.5833H14V22.1667ZM19 22.1667H21V28.5833H19V22.1667ZM23 22.1667H25V28.5833H23V22.1667ZM28 22.1667H30V28.5833H28V22.1667ZM12 17.5833L22 13L32 17.5833V21.25H12V17.5833ZM22 18.5C22.2652 18.5 22.5196 18.4034 22.7071 18.2315C22.8946 18.0596 23 17.8264 23 17.5833C23 17.3402 22.8946 17.1071 22.7071 16.9352C22.5196 16.7632 22.2652 16.6667 22 16.6667C21.7348 16.6667 21.4804 16.7632 21.2929 16.9352C21.1054 17.1071 21 17.3402 21 17.5833C21 17.8264 21.1054 18.0596 21.2929 18.2315C21.4804 18.4034 21.7348 18.5 22 18.5Z" fill="white"/>
</svg>
