<svg width="15" height="14" viewBox="0 0 15 14" fill="none" xmlns="http://www.w3.org/2000/svg">
<path d="M0 12.375H15V13.75H0V12.375ZM1.5 6.875H3V11.6875H1.5V6.875ZM5.25 6.875H6.75V11.6875H5.25V6.875ZM8.25 6.875H9.75V11.6875H8.25V6.875ZM12 6.875H13.5V11.6875H12V6.875ZM0 3.4375L7.5 0L15 3.4375V6.1875H0V3.4375ZM7.5 4.125C7.69891 4.125 7.88968 4.05257 8.03033 3.92364C8.17098 3.7947 8.25 3.61984 8.25 3.4375C8.25 3.25516 8.17098 3.0803 8.03033 2.95136C7.88968 2.82243 7.69891 2.75 7.5 2.75C7.30109 2.75 7.11032 2.82243 6.96967 2.95136C6.82902 3.0803 6.75 3.25516 6.75 3.4375C6.75 3.61984 6.82902 3.7947 6.96967 3.92364C7.11032 4.05257 7.30109 4.125 7.5 4.125Z" fill="#1077BE"/>
</svg>
