<svg width="45" height="45" viewBox="0 0 45 45" fill="none" xmlns="http://www.w3.org/2000/svg">
<circle cx="22.5" cy="22.5" r="22.5" fill="#1077BE"/>
<path d="M28.3158 25.3684C27.5789 25.3684 27.0526 24.7368 27.0526 24.1053C27.0526 23.3684 27.6842 22.8421 28.3158 22.8421C28.9474 22.8421 29.5789 23.4737 29.5789 24.1053C29.6842 24.7368 29.0526 25.3684 28.3158 25.3684ZM28.3158 20.3158C26.3158 20.3158 24.6316 22 24.6316 24C24.6316 26.7368 28.3158 30.8421 28.3158 30.8421C28.3158 30.8421 32 26.7368 32 24C32 22 30.3158 20.3158 28.3158 20.3158ZM24.5263 19.5789C24.2105 18.2105 22.9474 17.1579 21.4737 17.1579C19.6842 17.1579 18.3158 18.5263 18.3158 20.3158C18.3158 22.1053 19.6842 23.4737 21.4737 23.4737C21.8947 23.4737 22.2105 23.3684 22.5263 23.2632C22.7368 21.7895 23.4737 20.5263 24.5263 19.5789ZM22.5263 24.5263H16.2105C16.2105 23.968 15.9887 23.4325 15.5939 23.0377C15.1991 22.6429 14.6636 22.4211 14.1053 22.4211V18.2105C14.6636 18.2105 15.1991 17.9887 15.5939 17.5939C15.9887 17.1991 16.2105 16.6636 16.2105 16.1053H26.7368C26.7368 16.6636 26.9586 17.1991 27.3535 17.5939C27.7483 17.9887 28.2838 18.2105 28.8421 18.2105C28.8421 18.2105 29.8947 18.2105 30.9474 18.8421V14H12V26.6316H23.0526C22.8421 25.8947 22.6316 25.2632 22.5263 24.5263Z" fill="white"/>
</svg>
