<svg width="25" height="22" viewBox="0 0 25 22" fill="none" xmlns="http://www.w3.org/2000/svg">
<path d="M20.3947 14.2105C19.4737 14.2105 18.8158 13.4211 18.8158 12.6316C18.8158 11.7105 19.6053 11.0526 20.3947 11.0526C21.1842 11.0526 21.9737 11.8421 21.9737 12.6316C22.1053 13.4211 21.3158 14.2105 20.3947 14.2105ZM20.3947 7.89474C17.8947 7.89474 15.7895 10 15.7895 12.5C15.7895 15.9211 20.3947 21.0526 20.3947 21.0526C20.3947 21.0526 25 15.9211 25 12.5C25 10 22.8947 7.89474 20.3947 7.89474ZM15.6579 6.97368C15.2632 5.26316 13.6842 3.94737 11.8421 3.94737C9.60526 3.94737 7.89474 5.65789 7.89474 7.89474C7.89474 10.1316 9.60526 11.8421 11.8421 11.8421C12.3684 11.8421 12.7632 11.7105 13.1579 11.5789C13.4211 9.73684 14.3421 8.1579 15.6579 6.97368ZM13.1579 13.1579H5.26316C5.26316 12.46 4.9859 11.7906 4.49239 11.2971C3.99887 10.8036 3.32952 10.5263 2.63158 10.5263V5.26316C3.32952 5.26316 3.99887 4.9859 4.49239 4.49239C4.9859 3.99887 5.26316 3.32952 5.26316 2.63158H18.4211C18.4211 3.32952 18.6983 3.99887 19.1918 4.49239C19.6853 4.9859 20.3547 5.26316 21.0526 5.26316C21.0526 5.26316 22.3684 5.26316 23.6842 6.05263V0H0V15.7895H13.8158C13.5526 14.8684 13.2895 14.0789 13.1579 13.1579Z" fill="#4F4F4F"/>
</svg>
