<svg width="18" height="14" viewBox="0 0 18 14" fill="none" xmlns="http://www.w3.org/2000/svg">
<path d="M16.5938 0.53125H1.40625C1.18255 0.531511 0.968094 0.620489 0.809916 0.778666C0.651739 0.936844 0.562761 1.1513 0.5625 1.375V12.625C0.562761 12.8487 0.651739 13.0632 0.809916 13.2213C0.968094 13.3795 1.18255 13.4685 1.40625 13.4688H16.5938C16.8174 13.4685 17.0319 13.3795 17.1901 13.2213C17.3483 13.0632 17.4372 12.8487 17.4375 12.625V1.375C17.4372 1.1513 17.3483 0.936844 17.1901 0.778666C17.0319 0.620489 16.8174 0.531511 16.5938 0.53125ZM16.3125 1.65625V3.90625H1.6875V1.65625H16.3125ZM1.6875 12.3438V6.15625H16.3125V12.3438H1.6875Z" fill="#333333"/>
</svg>
