<svg width="18" height="14" viewBox="0 0 18 14" fill="none" xmlns="http://www.w3.org/2000/svg">
<path d="M3.27273 0H18V9.81818H3.27273V0ZM10.6364 2.45455C11.2873 2.45455 11.9117 2.71315 12.372 3.17347C12.8323 3.63378 13.0909 4.25811 13.0909 4.90909C13.0909 5.56008 12.8323 6.1844 12.372 6.64472C11.9117 7.10503 11.2873 7.36364 10.6364 7.36364C9.98538 7.36364 9.36105 7.10503 8.90074 6.64472C8.44042 6.1844 8.18182 5.56008 8.18182 4.90909C8.18182 4.25811 8.44042 3.63378 8.90074 3.17347C9.36105 2.71315 9.98538 2.45455 10.6364 2.45455ZM6.54545 1.63636C6.54545 2.07035 6.37305 2.48657 6.06617 2.79345C5.7593 3.10033 5.34308 3.27273 4.90909 3.27273V6.54545C5.34308 6.54545 5.7593 6.71786 6.06617 7.02473C6.37305 7.33161 6.54545 7.74783 6.54545 8.18182H14.7273C14.7273 7.74783 14.8997 7.33161 15.2066 7.02473C15.5134 6.71786 15.9296 6.54545 16.3636 6.54545V3.27273C15.9296 3.27273 15.5134 3.10033 15.2066 2.79345C14.8997 2.48657 14.7273 2.07035 14.7273 1.63636H6.54545ZM0 3.27273H1.63636V11.4545H14.7273V13.0909H0V3.27273Z" fill="#1077BE"/>
</svg>
