<svg width="25" height="22" viewBox="0 0 25 22" fill="none" xmlns="http://www.w3.org/2000/svg">
<path d="M12.5 0.125L0 11.375H3.75V21.375H21.25V11.375H25L12.5 0.125ZM12.5 6C15.125 6 17.25 8.125 17.25 10.75C17.25 14.5 12.5 18.875 12.5 18.875C12.5 18.875 7.75 14.5 7.75 10.75C7.75 8.125 9.875 6 12.5 6ZM12.5 8.875C12.0027 8.875 11.5258 9.07254 11.1742 9.42417C10.8225 9.7758 10.625 10.2527 10.625 10.75C10.625 11.2473 10.8225 11.7242 11.1742 12.0758C11.5258 12.4275 12.0027 12.625 12.5 12.625C12.9973 12.625 13.4742 12.4275 13.8258 12.0758C14.1775 11.7242 14.375 11.2473 14.375 10.75C14.375 10.2527 14.1775 9.7758 13.8258 9.42417C13.4742 9.07254 12.9973 8.875 12.5 8.875Z" fill="#4F4F4F"/>
</svg>
