<svg width="16" height="16" viewBox="0 0 16 16" fill="none" xmlns="http://www.w3.org/2000/svg">
<path d="M12.372 15.6457C12.2163 15.6453 12.061 15.6282 11.9089 15.5948C9.01316 14.9957 6.34541 13.5912 4.21268 11.5429C2.12547 9.49006 0.677879 6.87635 0.0450497 4.01801C-0.0295688 3.66177 -0.0112545 3.29233 0.0982308 2.94522C0.207716 2.59811 0.404688 2.28502 0.670195 2.03607L2.52248 0.253246C2.61708 0.163775 2.7295 0.0952597 2.85238 0.0521722C2.97525 0.00908481 3.10584 -0.00760652 3.2356 0.00318761C3.37016 0.0172246 3.5 0.0605682 3.616 0.13017C3.73201 0.199772 3.83135 0.293942 3.90706 0.406059L6.22241 3.82815C6.30924 3.96093 6.35115 4.11808 6.34198 4.27646C6.33281 4.43485 6.27304 4.58611 6.17147 4.70798L5.00916 6.09719C5.47207 7.12171 6.12764 8.04768 6.94017 8.82468C7.74744 9.62986 8.70161 10.2728 9.75101 10.7186L11.1912 9.57485C11.3121 9.47926 11.4593 9.42274 11.6131 9.41282C11.767 9.40289 11.9202 9.44002 12.0525 9.51928L15.5486 11.7791C15.6686 11.8507 15.7708 11.9486 15.8476 12.0653C15.9244 12.1821 15.9738 12.3147 15.9921 12.4532C16.0103 12.5917 15.997 12.7326 15.9531 12.8653C15.9092 12.9979 15.8358 13.1189 15.7385 13.2192L13.9325 15.0067C13.7274 15.2108 13.4839 15.3724 13.2161 15.482C12.9483 15.5917 12.6614 15.6473 12.372 15.6457ZM3.16151 0.920067L1.30923 2.70289C1.15987 2.84206 1.0493 3.01772 0.98841 3.21258C0.927516 3.40744 0.91839 3.6148 0.961929 3.81426C1.55036 6.49642 2.90299 8.95077 4.85635 10.8807C6.86339 12.8078 9.37389 14.1289 12.0988 14.6918C12.305 14.7349 12.5188 14.7262 12.7208 14.6664C12.9228 14.6066 13.1069 14.4975 13.2564 14.3491L15.0624 12.5617L11.6866 10.3806L10.14 11.6124C10.0808 11.6592 10.011 11.6909 9.93675 11.7046C9.86249 11.7183 9.78601 11.7137 9.71396 11.6911C8.42973 11.2179 7.26592 10.4668 6.30576 9.4915C5.31264 8.56407 4.54175 7.42436 4.05061 6.15739C4.02983 6.08069 4.02914 5.99993 4.0486 5.92289C4.06807 5.84585 4.10703 5.7751 4.16175 5.71748L5.41204 4.22176L3.16151 0.920067Z" fill="#4F4F4F"/>
</svg>
