<svg width="15" height="16" viewBox="0 0 15 16" fill="none" xmlns="http://www.w3.org/2000/svg">
<path d="M8.25 10.503H3.75C3.55109 10.503 3.36033 10.582 3.21967 10.7226C3.07902 10.8633 3 11.0541 3 11.253C3 11.4519 3.07902 11.6427 3.21967 11.7833C3.36033 11.924 3.55109 12.003 3.75 12.003H8.25C8.44891 12.003 8.63968 11.924 8.78033 11.7833C8.92098 11.6427 9 11.4519 9 11.253C9 11.0541 8.92098 10.8633 8.78033 10.7226C8.63968 10.582 8.44891 10.503 8.25 10.503ZM5.25 6.00298H6.75C6.94892 6.00298 7.13968 5.92396 7.28033 5.78331C7.42099 5.64266 7.5 5.45189 7.5 5.25298C7.5 5.05407 7.42099 4.8633 7.28033 4.72265C7.13968 4.582 6.94892 4.50298 6.75 4.50298H5.25C5.05109 4.50298 4.86033 4.582 4.71967 4.72265C4.57902 4.8633 4.5 5.05407 4.5 5.25298C4.5 5.45189 4.57902 5.64266 4.71967 5.78331C4.86033 5.92396 5.05109 6.00298 5.25 6.00298ZM14.25 7.50298H12V0.752981C12.0005 0.620823 11.9661 0.490874 11.9003 0.37629C11.8344 0.261707 11.7395 0.166559 11.625 0.100481C11.511 0.0346547 11.3817 0 11.25 0C11.1183 0 10.989 0.0346547 10.875 0.100481L8.625 1.39048L6.375 0.100481C6.26099 0.0346547 6.13166 0 6 0C5.86835 0 5.73902 0.0346547 5.625 0.100481L3.375 1.39048L1.12501 0.100481C1.01099 0.0346547 0.881658 0 0.750006 0C0.618353 0 0.48902 0.0346547 0.375006 0.100481C0.260553 0.166559 0.165592 0.261707 0.0997395 0.37629C0.0338871 0.490874 -0.000518763 0.620823 5.91216e-06 0.752981V12.753C5.91216e-06 13.3497 0.237059 13.922 0.659015 14.344C1.08097 14.7659 1.65327 15.003 2.25001 15.003H12.75C13.3467 15.003 13.919 14.7659 14.341 14.344C14.7629 13.922 15 13.3497 15 12.753V8.25298C15 8.05407 14.921 7.8633 14.7803 7.72265C14.6397 7.582 14.4489 7.50298 14.25 7.50298ZM2.25001 13.503C2.05109 13.503 1.86033 13.424 1.71968 13.2833C1.57902 13.1427 1.50001 12.9519 1.50001 12.753V2.05048L3 2.90548C3.11576 2.96594 3.24441 2.99751 3.375 2.99751C3.5056 2.99751 3.63425 2.96594 3.75 2.90548L6 1.61548L8.25 2.90548C8.36576 2.96594 8.49441 2.99751 8.625 2.99751C8.75559 2.99751 8.88425 2.96594 9 2.90548L10.5 2.05048V12.753C10.502 13.0088 10.5477 13.2625 10.635 13.503H2.25001ZM13.5 12.753C13.5 12.9519 13.421 13.1427 13.2803 13.2833C13.1397 13.424 12.9489 13.503 12.75 13.503C12.5511 13.503 12.3603 13.424 12.2197 13.2833C12.079 13.1427 12 12.9519 12 12.753V9.00298H13.5V12.753ZM8.25 7.50298H3.75C3.55109 7.50298 3.36033 7.582 3.21967 7.72265C3.07902 7.8633 3 8.05407 3 8.25298C3 8.45189 3.07902 8.64266 3.21967 8.78331C3.36033 8.92396 3.55109 9.00298 3.75 9.00298H8.25C8.44891 9.00298 8.63968 8.92396 8.78033 8.78331C8.92098 8.64266 9 8.45189 9 8.25298C9 8.05407 8.92098 7.8633 8.78033 7.72265C8.63968 7.582 8.44891 7.50298 8.25 7.50298Z" fill="#4F4F4F"/>
</svg>
