<svg width="15" height="16" viewBox="0 0 15 16" fill="none" xmlns="http://www.w3.org/2000/svg">
<path d="M8.59002 7.74152H15V1.33279C14.99 -0.0859547 14.1613 -0.427204 13.1588 0.576543L11.7163 2.02404C10.4453 1.0254 8.87512 0.483807 7.25877 0.486544C5.32128 0.486544 3.49753 1.24154 2.12878 2.61279C1.45144 3.28368 0.914389 4.08267 0.548917 4.96319C0.183445 5.84372 -0.00313817 6.78817 3.99263e-05 7.74152C3.99263e-05 9.68277 0.755038 11.5065 2.12628 12.8753C2.79865 13.5516 3.59846 14.0879 4.47945 14.453C5.36044 14.8182 6.3051 15.0051 7.25877 15.0028C9.19627 15.0028 11.02 14.2465 12.3913 12.874C12.7613 12.5028 13.0888 12.0978 13.3663 11.6678C13.5743 11.3439 13.6451 10.9506 13.5632 10.5745C13.4813 10.1983 13.2533 9.87017 12.9294 9.66214C12.6055 9.45411 12.2122 9.38327 11.8361 9.4652C11.46 9.54713 11.1318 9.77512 10.9238 10.099C10.7575 10.3578 10.5588 10.599 10.3388 10.824C9.93504 11.2294 9.45499 11.5508 8.92634 11.7697C8.39769 11.9885 7.83092 12.1005 7.25877 12.099C6.68657 12.1008 6.1197 11.989 5.591 11.7702C5.06231 11.5513 4.5823 11.2297 4.17878 10.824C3.77327 10.4201 3.4518 9.93984 3.23296 9.41097C3.01412 8.88211 2.90224 8.31513 2.90378 7.74277C2.90378 6.58028 3.35628 5.48653 4.17878 4.66653C4.58244 4.26094 5.06246 3.93934 5.5911 3.72028C6.11974 3.50123 6.68654 3.38907 7.25877 3.39029C8.11877 3.39029 8.94127 3.64153 9.64501 4.10528L7.83502 5.91903C6.83127 6.92153 7.17252 7.74152 8.59002 7.74152Z" fill="#4F4F4F"/>
</svg>
