<svg width="10" height="10" viewBox="0 0 10 10" fill="none" xmlns="http://www.w3.org/2000/svg">
<path fill-rule="evenodd" clip-rule="evenodd" d="M5.18164 0.68262C5.23969 0.624422 5.30866 0.578249 5.38458 0.546744C5.4605 0.51524 5.54189 0.499023 5.62409 0.499023C5.70629 0.499023 5.78769 0.51524 5.86361 0.546744C5.93953 0.578249 6.00849 0.624422 6.06654 0.68262L9.81613 4.4322C9.87432 4.49025 9.9205 4.55921 9.952 4.63514C9.98351 4.71106 9.99972 4.79245 9.99972 4.87465C9.99972 4.95685 9.98351 5.03824 9.952 5.11417C9.9205 5.19009 9.87432 5.25905 9.81613 5.3171L6.06654 9.06668C5.9492 9.18403 5.79005 9.24995 5.62409 9.24995C5.45814 9.24995 5.29899 9.18403 5.18164 9.06668C5.0643 8.94934 4.99837 8.79018 4.99837 8.62423C4.99837 8.45828 5.0643 8.29913 5.18164 8.18178L8.49002 4.87465L5.18164 1.56752C5.12345 1.50947 5.07727 1.44051 5.04577 1.36459C5.01426 1.28866 4.99805 1.20727 4.99805 1.12507C4.99805 1.04287 5.01426 0.961478 5.04577 0.885555C5.07727 0.809632 5.12345 0.74067 5.18164 0.68262Z" fill="#333333"/>
<path fill-rule="evenodd" clip-rule="evenodd" d="M0 4.87469C0 4.70894 0.0658408 4.54999 0.183038 4.43279C0.300235 4.3156 0.459188 4.24976 0.62493 4.24976H8.74902C8.91476 4.24976 9.07372 4.3156 9.19092 4.43279C9.30811 4.54999 9.37395 4.70894 9.37395 4.87469C9.37395 5.04043 9.30811 5.19938 9.19092 5.31658C9.07372 5.43378 8.91476 5.49962 8.74902 5.49962H0.62493C0.459188 5.49962 0.300235 5.43378 0.183038 5.31658C0.0658408 5.19938 0 5.04043 0 4.87469Z" fill="#333333"/>
</svg>
