<svg width="25" height="25" viewBox="0 0 25 25" fill="none" xmlns="http://www.w3.org/2000/svg">
<mask id="mask0" mask-type="alpha" maskUnits="userSpaceOnUse" x="0" y="0" width="25" height="25">
<circle cx="12.5" cy="12.5" r="12.5" fill="#4F4F4F"/>
</mask>
<g mask="url(#mask0)">
</g>
<rect x="1" y="1" width="24" height="24" rx="12" fill="#4F4F4F"/>
<path d="M13 5C15.21 5 17 6.79 17 9C17 11.21 15.21 13 13 13C10.79 13 9 11.21 9 9C9 6.79 10.79 5 13 5ZM13 21C13 21 21 21 21 19C21 16.6 17.1 14 13 14C8.9 14 5 16.6 5 19C5 21 13 21 13 21Z" fill="white"/>
</svg>
