<svg width="40" height="34" viewBox="0 0 40 34" fill="none" xmlns="http://www.w3.org/2000/svg">
<path d="M22.3256 27.907C22.3256 27.2744 22.4 26.6605 22.493 26.0465H3.72093V14.8837H33.4884V16.7442C34.7907 16.7442 36.0372 16.986 37.2093 17.3953V3.72093C37.2093 1.65581 35.5535 0 33.4884 0H3.72093C1.65581 0 0 1.65581 0 3.72093V26.0465C0 27.0334 0.392026 27.9798 1.08984 28.6776C1.78765 29.3754 2.73408 29.7674 3.72093 29.7674H22.493C22.4 29.1535 22.3256 28.5395 22.3256 27.907ZM3.72093 3.72093H33.4884V7.44186H3.72093V3.72093ZM31.1628 33.4884L26.0465 27.907L28.2047 25.7488L31.1628 28.707L37.8419 22.0279L40 24.6512L31.1628 33.4884Z" fill="#4F4F4F"/>
</svg>
