<svg width="15" height="14" viewBox="0 0 15 14" fill="none" xmlns="http://www.w3.org/2000/svg">
<path d="M12.9545 0H6.13636C5.59388 0 5.07361 0.215503 4.69001 0.5991C4.30641 0.982697 4.09091 1.50297 4.09091 2.04545V6.81818C4.09091 7.36067 4.30641 7.88094 4.69001 8.26454C5.07361 8.64813 5.59388 8.86364 6.13636 8.86364H12.9545C13.497 8.86364 14.0173 8.64813 14.4009 8.26454C14.7845 7.88094 15 7.36067 15 6.81818V2.04545C15 1.50297 14.7845 0.982697 14.4009 0.5991C14.0173 0.215503 13.497 0 12.9545 0ZM13.6364 6.81818C13.6364 6.99901 13.5645 7.17243 13.4367 7.3003C13.3088 7.42816 13.1354 7.5 12.9545 7.5H6.13636C5.95553 7.5 5.78211 7.42816 5.65425 7.3003C5.52638 7.17243 5.45455 6.99901 5.45455 6.81818V2.04545C5.45455 1.86462 5.52638 1.6912 5.65425 1.56334C5.78211 1.43547 5.95553 1.36364 6.13636 1.36364H12.9545C13.1354 1.36364 13.3088 1.43547 13.4367 1.56334C13.5645 1.6912 13.6364 1.86462 13.6364 2.04545V6.81818ZM11.25 4.09091C10.9976 4.09176 10.7545 4.18656 10.5682 4.35682C10.4216 4.22356 10.2394 4.13575 10.0438 4.10407C9.84825 4.07239 9.64768 4.0982 9.4665 4.17836C9.28531 4.25852 9.13131 4.38958 9.02321 4.55561C8.91511 4.72165 8.85756 4.91551 8.85756 5.11364C8.85756 5.31176 8.91511 5.50562 9.02321 5.67166C9.13131 5.83769 9.28531 5.96876 9.4665 6.04892C9.64768 6.12908 9.84825 6.15488 10.0438 6.1232C10.2394 6.09152 10.4216 6.00371 10.5682 5.87045C10.6913 5.98236 10.8399 6.06254 11.001 6.10403C11.1621 6.14552 11.3309 6.14708 11.4928 6.10857C11.6547 6.07005 11.8047 5.99263 11.9299 5.88301C12.055 5.7734 12.1516 5.6349 12.2111 5.47953C12.2706 5.32416 12.2913 5.15662 12.2715 4.99143C12.2516 4.82624 12.1917 4.66839 12.097 4.53158C12.0023 4.39477 11.8757 4.28313 11.7281 4.20634C11.5805 4.12955 11.4164 4.08992 11.25 4.09091ZM10.2273 10.2273C10.0464 10.2273 9.87302 10.2991 9.74515 10.427C9.61729 10.5548 9.54545 10.7283 9.54545 10.9091V11.5909C9.54545 11.7717 9.47362 11.9452 9.34575 12.073C9.21789 12.2009 9.04447 12.2727 8.86364 12.2727H2.04545C1.86463 12.2727 1.6912 12.2009 1.56334 12.073C1.43547 11.9452 1.36364 11.7717 1.36364 11.5909V8.86364H2.04545C2.22628 8.86364 2.39971 8.7918 2.52757 8.66394C2.65544 8.53607 2.72727 8.36265 2.72727 8.18182C2.72727 8.00099 2.65544 7.82757 2.52757 7.6997C2.39971 7.57183 2.22628 7.5 2.04545 7.5H1.36364V6.81818C1.36364 6.63735 1.43547 6.46393 1.56334 6.33606C1.6912 6.2082 1.86463 6.13636 2.04545 6.13636C2.22628 6.13636 2.39971 6.06453 2.52757 5.93666C2.65544 5.8088 2.72727 5.63537 2.72727 5.45455C2.72727 5.27372 2.65544 5.10029 2.52757 4.97243C2.39971 4.84456 2.22628 4.77273 2.04545 4.77273C1.50297 4.77273 0.982697 4.98823 0.5991 5.37183C0.215503 5.75542 0 6.27569 0 6.81818V11.5909C0 12.1334 0.215503 12.6537 0.5991 13.0373C0.982697 13.4209 1.50297 13.6364 2.04545 13.6364H8.86364C9.40613 13.6364 9.92639 13.4209 10.31 13.0373C10.6936 12.6537 10.9091 12.1334 10.9091 11.5909V10.9091C10.9091 10.7283 10.8373 10.5548 10.7094 10.427C10.5815 10.2991 10.4081 10.2273 10.2273 10.2273ZM3.40909 10.9091H4.09091C4.27174 10.9091 4.44516 10.8373 4.57303 10.7094C4.70089 10.5815 4.77273 10.4081 4.77273 10.2273C4.77273 10.0464 4.70089 9.87302 4.57303 9.74515C4.44516 9.61729 4.27174 9.54545 4.09091 9.54545H3.40909C3.22826 9.54545 3.05484 9.61729 2.92697 9.74515C2.79911 9.87302 2.72727 10.0464 2.72727 10.2273C2.72727 10.4081 2.79911 10.5815 2.92697 10.7094C3.05484 10.8373 3.22826 10.9091 3.40909 10.9091Z" fill="#333333"/>
</svg>
