<svg width="15" height="16" viewBox="0 0 15 16" fill="none" xmlns="http://www.w3.org/2000/svg">
<path d="M7.5 9C9.70914 9 11.5 7.20914 11.5 5C11.5 2.79086 9.70914 1 7.5 1C5.29086 1 3.5 2.79086 3.5 5C3.5 7.20914 5.29086 9 7.5 9Z" stroke="#1077BE" stroke-linecap="round" stroke-linejoin="round"/>
<path d="M3.98906 7.11914L1 12.4998L3.71438 12.4866C3.80134 12.4862 3.88692 12.5085 3.96266 12.5512C4.0384 12.5939 4.10168 12.6557 4.14625 12.7304L5.5 14.9998L8.26031 8.92727" stroke="#1077BE" stroke-linecap="round" stroke-linejoin="round"/>
<path d="M10.9544 7L14 12.5L11.2856 12.4869C11.1987 12.4864 11.1131 12.5087 11.0373 12.5514C10.9616 12.5942 10.8983 12.6559 10.8538 12.7306L9.5 15L7.5 10.6" stroke="#1077BE" stroke-linecap="round" stroke-linejoin="round"/>
<path d="M7.5 7C8.60457 7 9.5 6.10457 9.5 5C9.5 3.89543 8.60457 3 7.5 3C6.39543 3 5.5 3.89543 5.5 5C5.5 6.10457 6.39543 7 7.5 7Z" stroke="#1077BE" stroke-linecap="round" stroke-linejoin="round"/>
</svg>
