<svg width="15" height="19" viewBox="0 0 15 19" fill="none" xmlns="http://www.w3.org/2000/svg">
<path d="M12.1875 5.625H5.625V3.75C5.625 3.25272 5.82254 2.77581 6.17418 2.42417C6.52581 2.07254 7.00272 1.875 7.5 1.875C7.99728 1.875 8.47419 2.07254 8.82582 2.42417C9.17746 2.77581 9.375 3.25272 9.375 3.75C9.375 3.99864 9.47377 4.2371 9.64959 4.41291C9.8254 4.58873 10.0639 4.6875 10.3125 4.6875C10.5611 4.6875 10.7996 4.58873 10.9754 4.41291C11.1512 4.2371 11.25 3.99864 11.25 3.75C11.25 2.75544 10.8549 1.80161 10.1517 1.09835C9.44839 0.395088 8.49456 0 7.5 0C6.50544 0 5.55161 0.395088 4.84835 1.09835C4.14509 1.80161 3.75 2.75544 3.75 3.75V5.625H2.8125C2.06658 5.625 1.35121 5.92132 0.823762 6.44876C0.296316 6.97621 0 7.69158 0 8.4375V15.9375C0 16.6834 0.296316 17.3988 0.823762 17.9262C1.35121 18.4537 2.06658 18.75 2.8125 18.75H12.1875C12.9334 18.75 13.6488 18.4537 14.1762 17.9262C14.7037 17.3988 15 16.6834 15 15.9375V8.4375C15 7.69158 14.7037 6.97621 14.1762 6.44876C13.6488 5.92132 12.9334 5.625 12.1875 5.625ZM7.5 15C6.94374 15 6.39997 14.8351 5.93746 14.526C5.47495 14.217 5.11446 13.7777 4.90159 13.2638C4.68872 12.7499 4.63302 12.1844 4.74154 11.6388C4.85006 11.0932 5.11793 10.5921 5.51126 10.1988C5.9046 9.80543 6.40574 9.53756 6.95131 9.42904C7.49688 9.32052 8.06238 9.37622 8.5763 9.58909C9.09021 9.80196 9.52947 10.1624 9.83851 10.625C10.1475 11.0875 10.3125 11.6312 10.3125 12.1875C10.3125 12.9334 10.0162 13.6488 9.48874 14.1762C8.96129 14.7037 8.24592 15 7.5 15Z" fill="#333333"/>
</svg>
