<svg fill="none" height="28" viewBox="0 0 40 28" width="40" xmlns="http://www.w3.org/2000/svg"><path d="m14 17.5c-4.68 0-14 2.34-14 7v3.5h28v-3.5c0-4.66-9.32-7-14-7zm-9.32 6.5c1.68-1.16 5.74-2.5 9.32-2.5s7.64 1.34 9.32 2.5zm9.32-10c3.86 0 7-3.14 7-7s-3.14-7-7-7-7 3.14-7 7 3.14 7 7 7zm0-10c1.66 0 3 1.34 3 3s-1.34 3-3 3-3-1.34-3-3 1.34-3 3-3zm14.08 13.62c2.32 1.68 3.92 3.92 3.92 6.88v3.5h8v-3.5c0-4.04-7-6.34-11.92-6.88zm-2.08-3.62c3.86 0 7-3.14 7-7s-3.14-7-7-7c-1.08 0-2.08.26-3 .7 1.26 1.78 2 3.96 2 6.3s-.74 4.52-2 6.3c.92.44 1.92.7 3 .7z" fill="#4f4f4f"/></svg>