<svg width="20" height="21" viewBox="0 0 20 21" fill="none" xmlns="http://www.w3.org/2000/svg">
<path d="M10 0.0498047C8.02219 0.0498047 6.08879 0.636295 4.4443 1.73511C2.79981 2.83392 1.51809 4.39571 0.761209 6.22297C0.00433281 8.05023 -0.1937 10.0609 0.192152 12.0007C0.578004 13.9405 1.53041 15.7223 2.92894 17.1209C4.32746 18.5194 6.10929 19.4718 8.0491 19.8577C9.98891 20.2435 11.9996 20.0455 13.8268 19.2886C15.6541 18.5317 17.2159 17.25 18.3147 15.6055C19.4135 13.961 20 12.0276 20 10.0498C20 7.39764 18.9464 4.8541 17.0711 2.97874C15.1957 1.10337 12.6522 0.0498047 10 0.0498047ZM9.125 4.2373C9.125 4.00524 9.21719 3.78268 9.38128 3.61859C9.54538 3.45449 9.76794 3.3623 10 3.3623C10.2321 3.3623 10.4546 3.45449 10.6187 3.61859C10.7828 3.78268 10.875 4.00524 10.875 4.2373V11.7373C10.875 11.9694 10.7828 12.1919 10.6187 12.356C10.4546 12.5201 10.2321 12.6123 10 12.6123C9.76794 12.6123 9.54538 12.5201 9.38128 12.356C9.21719 12.1919 9.125 11.9694 9.125 11.7373V4.2373ZM10 16.6123C9.7775 16.6123 9.55999 16.5463 9.37499 16.4227C9.18998 16.2991 9.04579 16.1234 8.96064 15.9178C8.87549 15.7123 8.85321 15.4861 8.89662 15.2678C8.94003 15.0496 9.04717 14.8491 9.20451 14.6918C9.36184 14.5345 9.5623 14.4273 9.78053 14.3839C9.99876 14.3405 10.225 14.3628 10.4305 14.4479C10.6361 14.5331 10.8118 14.6773 10.9354 14.8623C11.059 15.0473 11.125 15.2648 11.125 15.4873C11.125 15.7857 11.0065 16.0718 10.7955 16.2828C10.5845 16.4938 10.2984 16.6123 10 16.6123Z" fill="#F2994A"/>
</svg>
